%TF.GenerationSoftware,KiCad,Pcbnew,10.0.1*%
%TF.CreationDate,2026-07-08T12:47:03+03:00*%
%TF.ProjectId,Temperature_PCB,54656d70-6572-4617-9475-72655f504342,rev?*%
%TF.SameCoordinates,Original*%
%TF.FileFunction,Legend,Bot*%
%TF.FilePolarity,Positive*%
%FSLAX46Y46*%
G04 Gerber Fmt 4.6, Leading zero omitted, Abs format (unit mm)*
G04 Created by KiCad (PCBNEW 10.0.1) date 2026-07-08 12:47:03*
%MOMM*%
%LPD*%
G01*
G04 APERTURE LIST*
%ADD10C,0.300000*%
%ADD11C,0.200000*%
%ADD12C,0.150000*%
%ADD13C,0.120000*%
%TA.AperFunction,Profile*%
%ADD14C,0.050000*%
%TD*%
G04 APERTURE END LIST*
D10*
X163000000Y-132000000D02*
X165000000Y-132000000D01*
X163000000Y-144500000D02*
X165000000Y-144500000D01*
X163500000Y-133000000D02*
X166500000Y-133000000D01*
X164000000Y-133500000D02*
X166000000Y-133500000D01*
X164500000Y-134000000D02*
X165500000Y-134000000D01*
X165000000Y-132000000D02*
X165000000Y-133000000D01*
X165000000Y-144500000D02*
X165000000Y-147000000D01*
X165000000Y-147000000D02*
X164000000Y-146000000D01*
X166000000Y-146000000D02*
X165000000Y-147000000D01*
D11*
X169106517Y-132914838D02*
X169201755Y-132867219D01*
X169201755Y-132867219D02*
X169344612Y-132867219D01*
X169344612Y-132867219D02*
X169487469Y-132914838D01*
X169487469Y-132914838D02*
X169582707Y-133010076D01*
X169582707Y-133010076D02*
X169630326Y-133105314D01*
X169630326Y-133105314D02*
X169677945Y-133295790D01*
X169677945Y-133295790D02*
X169677945Y-133438647D01*
X169677945Y-133438647D02*
X169630326Y-133629123D01*
X169630326Y-133629123D02*
X169582707Y-133724361D01*
X169582707Y-133724361D02*
X169487469Y-133819600D01*
X169487469Y-133819600D02*
X169344612Y-133867219D01*
X169344612Y-133867219D02*
X169249374Y-133867219D01*
X169249374Y-133867219D02*
X169106517Y-133819600D01*
X169106517Y-133819600D02*
X169058898Y-133771980D01*
X169058898Y-133771980D02*
X169058898Y-133438647D01*
X169058898Y-133438647D02*
X169249374Y-133438647D01*
X168630326Y-133867219D02*
X168630326Y-132867219D01*
X168630326Y-132867219D02*
X168058898Y-133867219D01*
X168058898Y-133867219D02*
X168058898Y-132867219D01*
X167582707Y-133867219D02*
X167582707Y-132867219D01*
X167582707Y-132867219D02*
X167344612Y-132867219D01*
X167344612Y-132867219D02*
X167201755Y-132914838D01*
X167201755Y-132914838D02*
X167106517Y-133010076D01*
X167106517Y-133010076D02*
X167058898Y-133105314D01*
X167058898Y-133105314D02*
X167011279Y-133295790D01*
X167011279Y-133295790D02*
X167011279Y-133438647D01*
X167011279Y-133438647D02*
X167058898Y-133629123D01*
X167058898Y-133629123D02*
X167106517Y-133724361D01*
X167106517Y-133724361D02*
X167201755Y-133819600D01*
X167201755Y-133819600D02*
X167344612Y-133867219D01*
X167344612Y-133867219D02*
X167582707Y-133867219D01*
X169630326Y-146486266D02*
X168868422Y-146486266D01*
X169249374Y-146867219D02*
X169249374Y-146105314D01*
X167916041Y-145867219D02*
X168392231Y-145867219D01*
X168392231Y-145867219D02*
X168439850Y-146343409D01*
X168439850Y-146343409D02*
X168392231Y-146295790D01*
X168392231Y-146295790D02*
X168296993Y-146248171D01*
X168296993Y-146248171D02*
X168058898Y-146248171D01*
X168058898Y-146248171D02*
X167963660Y-146295790D01*
X167963660Y-146295790D02*
X167916041Y-146343409D01*
X167916041Y-146343409D02*
X167868422Y-146438647D01*
X167868422Y-146438647D02*
X167868422Y-146676742D01*
X167868422Y-146676742D02*
X167916041Y-146771980D01*
X167916041Y-146771980D02*
X167963660Y-146819600D01*
X167963660Y-146819600D02*
X168058898Y-146867219D01*
X168058898Y-146867219D02*
X168296993Y-146867219D01*
X168296993Y-146867219D02*
X168392231Y-146819600D01*
X168392231Y-146819600D02*
X168439850Y-146771980D01*
X167582707Y-145867219D02*
X167249374Y-146867219D01*
X167249374Y-146867219D02*
X166916041Y-145867219D01*
D12*
X157666666Y-144954819D02*
X157999999Y-144478628D01*
X158238094Y-144954819D02*
X158238094Y-143954819D01*
X158238094Y-143954819D02*
X157857142Y-143954819D01*
X157857142Y-143954819D02*
X157761904Y-144002438D01*
X157761904Y-144002438D02*
X157714285Y-144050057D01*
X157714285Y-144050057D02*
X157666666Y-144145295D01*
X157666666Y-144145295D02*
X157666666Y-144288152D01*
X157666666Y-144288152D02*
X157714285Y-144383390D01*
X157714285Y-144383390D02*
X157761904Y-144431009D01*
X157761904Y-144431009D02*
X157857142Y-144478628D01*
X157857142Y-144478628D02*
X158238094Y-144478628D01*
X156761904Y-143954819D02*
X157238094Y-143954819D01*
X157238094Y-143954819D02*
X157285713Y-144431009D01*
X157285713Y-144431009D02*
X157238094Y-144383390D01*
X157238094Y-144383390D02*
X157142856Y-144335771D01*
X157142856Y-144335771D02*
X156904761Y-144335771D01*
X156904761Y-144335771D02*
X156809523Y-144383390D01*
X156809523Y-144383390D02*
X156761904Y-144431009D01*
X156761904Y-144431009D02*
X156714285Y-144526247D01*
X156714285Y-144526247D02*
X156714285Y-144764342D01*
X156714285Y-144764342D02*
X156761904Y-144859580D01*
X156761904Y-144859580D02*
X156809523Y-144907200D01*
X156809523Y-144907200D02*
X156904761Y-144954819D01*
X156904761Y-144954819D02*
X157142856Y-144954819D01*
X157142856Y-144954819D02*
X157238094Y-144907200D01*
X157238094Y-144907200D02*
X157285713Y-144859580D01*
X147859580Y-113857142D02*
X147907200Y-113809523D01*
X147907200Y-113809523D02*
X147954819Y-113666666D01*
X147954819Y-113666666D02*
X147954819Y-113571428D01*
X147954819Y-113571428D02*
X147907200Y-113428571D01*
X147907200Y-113428571D02*
X147811961Y-113333333D01*
X147811961Y-113333333D02*
X147716723Y-113285714D01*
X147716723Y-113285714D02*
X147526247Y-113238095D01*
X147526247Y-113238095D02*
X147383390Y-113238095D01*
X147383390Y-113238095D02*
X147192914Y-113285714D01*
X147192914Y-113285714D02*
X147097676Y-113333333D01*
X147097676Y-113333333D02*
X147002438Y-113428571D01*
X147002438Y-113428571D02*
X146954819Y-113571428D01*
X146954819Y-113571428D02*
X146954819Y-113666666D01*
X146954819Y-113666666D02*
X147002438Y-113809523D01*
X147002438Y-113809523D02*
X147050057Y-113857142D01*
X147288152Y-114714285D02*
X147954819Y-114714285D01*
X146907200Y-114476190D02*
X147621485Y-114238095D01*
X147621485Y-114238095D02*
X147621485Y-114857142D01*
X147954819Y-115285714D02*
X147954819Y-115476190D01*
X147954819Y-115476190D02*
X147907200Y-115571428D01*
X147907200Y-115571428D02*
X147859580Y-115619047D01*
X147859580Y-115619047D02*
X147716723Y-115714285D01*
X147716723Y-115714285D02*
X147526247Y-115761904D01*
X147526247Y-115761904D02*
X147145295Y-115761904D01*
X147145295Y-115761904D02*
X147050057Y-115714285D01*
X147050057Y-115714285D02*
X147002438Y-115666666D01*
X147002438Y-115666666D02*
X146954819Y-115571428D01*
X146954819Y-115571428D02*
X146954819Y-115380952D01*
X146954819Y-115380952D02*
X147002438Y-115285714D01*
X147002438Y-115285714D02*
X147050057Y-115238095D01*
X147050057Y-115238095D02*
X147145295Y-115190476D01*
X147145295Y-115190476D02*
X147383390Y-115190476D01*
X147383390Y-115190476D02*
X147478628Y-115238095D01*
X147478628Y-115238095D02*
X147526247Y-115285714D01*
X147526247Y-115285714D02*
X147573866Y-115380952D01*
X147573866Y-115380952D02*
X147573866Y-115571428D01*
X147573866Y-115571428D02*
X147526247Y-115666666D01*
X147526247Y-115666666D02*
X147478628Y-115714285D01*
X147478628Y-115714285D02*
X147383390Y-115761904D01*
X128681160Y-136333333D02*
X128728780Y-136285714D01*
X128728780Y-136285714D02*
X128776399Y-136142857D01*
X128776399Y-136142857D02*
X128776399Y-136047619D01*
X128776399Y-136047619D02*
X128728780Y-135904762D01*
X128728780Y-135904762D02*
X128633541Y-135809524D01*
X128633541Y-135809524D02*
X128538303Y-135761905D01*
X128538303Y-135761905D02*
X128347827Y-135714286D01*
X128347827Y-135714286D02*
X128204970Y-135714286D01*
X128204970Y-135714286D02*
X128014494Y-135761905D01*
X128014494Y-135761905D02*
X127919256Y-135809524D01*
X127919256Y-135809524D02*
X127824018Y-135904762D01*
X127824018Y-135904762D02*
X127776399Y-136047619D01*
X127776399Y-136047619D02*
X127776399Y-136142857D01*
X127776399Y-136142857D02*
X127824018Y-136285714D01*
X127824018Y-136285714D02*
X127871637Y-136333333D01*
X127871637Y-136714286D02*
X127824018Y-136761905D01*
X127824018Y-136761905D02*
X127776399Y-136857143D01*
X127776399Y-136857143D02*
X127776399Y-137095238D01*
X127776399Y-137095238D02*
X127824018Y-137190476D01*
X127824018Y-137190476D02*
X127871637Y-137238095D01*
X127871637Y-137238095D02*
X127966875Y-137285714D01*
X127966875Y-137285714D02*
X128062113Y-137285714D01*
X128062113Y-137285714D02*
X128204970Y-137238095D01*
X128204970Y-137238095D02*
X128776399Y-136666667D01*
X128776399Y-136666667D02*
X128776399Y-137285714D01*
X130954819Y-110857142D02*
X130478628Y-110523809D01*
X130954819Y-110285714D02*
X129954819Y-110285714D01*
X129954819Y-110285714D02*
X129954819Y-110666666D01*
X129954819Y-110666666D02*
X130002438Y-110761904D01*
X130002438Y-110761904D02*
X130050057Y-110809523D01*
X130050057Y-110809523D02*
X130145295Y-110857142D01*
X130145295Y-110857142D02*
X130288152Y-110857142D01*
X130288152Y-110857142D02*
X130383390Y-110809523D01*
X130383390Y-110809523D02*
X130431009Y-110761904D01*
X130431009Y-110761904D02*
X130478628Y-110666666D01*
X130478628Y-110666666D02*
X130478628Y-110285714D01*
X130954819Y-111809523D02*
X130954819Y-111238095D01*
X130954819Y-111523809D02*
X129954819Y-111523809D01*
X129954819Y-111523809D02*
X130097676Y-111428571D01*
X130097676Y-111428571D02*
X130192914Y-111333333D01*
X130192914Y-111333333D02*
X130240533Y-111238095D01*
X130288152Y-112666666D02*
X130954819Y-112666666D01*
X129907200Y-112428571D02*
X130621485Y-112190476D01*
X130621485Y-112190476D02*
X130621485Y-112809523D01*
X139142857Y-120604819D02*
X139476190Y-120128628D01*
X139714285Y-120604819D02*
X139714285Y-119604819D01*
X139714285Y-119604819D02*
X139333333Y-119604819D01*
X139333333Y-119604819D02*
X139238095Y-119652438D01*
X139238095Y-119652438D02*
X139190476Y-119700057D01*
X139190476Y-119700057D02*
X139142857Y-119795295D01*
X139142857Y-119795295D02*
X139142857Y-119938152D01*
X139142857Y-119938152D02*
X139190476Y-120033390D01*
X139190476Y-120033390D02*
X139238095Y-120081009D01*
X139238095Y-120081009D02*
X139333333Y-120128628D01*
X139333333Y-120128628D02*
X139714285Y-120128628D01*
X138190476Y-120604819D02*
X138761904Y-120604819D01*
X138476190Y-120604819D02*
X138476190Y-119604819D01*
X138476190Y-119604819D02*
X138571428Y-119747676D01*
X138571428Y-119747676D02*
X138666666Y-119842914D01*
X138666666Y-119842914D02*
X138761904Y-119890533D01*
X137285714Y-119604819D02*
X137761904Y-119604819D01*
X137761904Y-119604819D02*
X137809523Y-120081009D01*
X137809523Y-120081009D02*
X137761904Y-120033390D01*
X137761904Y-120033390D02*
X137666666Y-119985771D01*
X137666666Y-119985771D02*
X137428571Y-119985771D01*
X137428571Y-119985771D02*
X137333333Y-120033390D01*
X137333333Y-120033390D02*
X137285714Y-120081009D01*
X137285714Y-120081009D02*
X137238095Y-120176247D01*
X137238095Y-120176247D02*
X137238095Y-120414342D01*
X137238095Y-120414342D02*
X137285714Y-120509580D01*
X137285714Y-120509580D02*
X137333333Y-120557200D01*
X137333333Y-120557200D02*
X137428571Y-120604819D01*
X137428571Y-120604819D02*
X137666666Y-120604819D01*
X137666666Y-120604819D02*
X137761904Y-120557200D01*
X137761904Y-120557200D02*
X137809523Y-120509580D01*
X160304819Y-110857142D02*
X159828628Y-110523809D01*
X160304819Y-110285714D02*
X159304819Y-110285714D01*
X159304819Y-110285714D02*
X159304819Y-110666666D01*
X159304819Y-110666666D02*
X159352438Y-110761904D01*
X159352438Y-110761904D02*
X159400057Y-110809523D01*
X159400057Y-110809523D02*
X159495295Y-110857142D01*
X159495295Y-110857142D02*
X159638152Y-110857142D01*
X159638152Y-110857142D02*
X159733390Y-110809523D01*
X159733390Y-110809523D02*
X159781009Y-110761904D01*
X159781009Y-110761904D02*
X159828628Y-110666666D01*
X159828628Y-110666666D02*
X159828628Y-110285714D01*
X159304819Y-111190476D02*
X159304819Y-111809523D01*
X159304819Y-111809523D02*
X159685771Y-111476190D01*
X159685771Y-111476190D02*
X159685771Y-111619047D01*
X159685771Y-111619047D02*
X159733390Y-111714285D01*
X159733390Y-111714285D02*
X159781009Y-111761904D01*
X159781009Y-111761904D02*
X159876247Y-111809523D01*
X159876247Y-111809523D02*
X160114342Y-111809523D01*
X160114342Y-111809523D02*
X160209580Y-111761904D01*
X160209580Y-111761904D02*
X160257200Y-111714285D01*
X160257200Y-111714285D02*
X160304819Y-111619047D01*
X160304819Y-111619047D02*
X160304819Y-111333333D01*
X160304819Y-111333333D02*
X160257200Y-111238095D01*
X160257200Y-111238095D02*
X160209580Y-111190476D01*
X159733390Y-112380952D02*
X159685771Y-112285714D01*
X159685771Y-112285714D02*
X159638152Y-112238095D01*
X159638152Y-112238095D02*
X159542914Y-112190476D01*
X159542914Y-112190476D02*
X159495295Y-112190476D01*
X159495295Y-112190476D02*
X159400057Y-112238095D01*
X159400057Y-112238095D02*
X159352438Y-112285714D01*
X159352438Y-112285714D02*
X159304819Y-112380952D01*
X159304819Y-112380952D02*
X159304819Y-112571428D01*
X159304819Y-112571428D02*
X159352438Y-112666666D01*
X159352438Y-112666666D02*
X159400057Y-112714285D01*
X159400057Y-112714285D02*
X159495295Y-112761904D01*
X159495295Y-112761904D02*
X159542914Y-112761904D01*
X159542914Y-112761904D02*
X159638152Y-112714285D01*
X159638152Y-112714285D02*
X159685771Y-112666666D01*
X159685771Y-112666666D02*
X159733390Y-112571428D01*
X159733390Y-112571428D02*
X159733390Y-112380952D01*
X159733390Y-112380952D02*
X159781009Y-112285714D01*
X159781009Y-112285714D02*
X159828628Y-112238095D01*
X159828628Y-112238095D02*
X159923866Y-112190476D01*
X159923866Y-112190476D02*
X160114342Y-112190476D01*
X160114342Y-112190476D02*
X160209580Y-112238095D01*
X160209580Y-112238095D02*
X160257200Y-112285714D01*
X160257200Y-112285714D02*
X160304819Y-112380952D01*
X160304819Y-112380952D02*
X160304819Y-112571428D01*
X160304819Y-112571428D02*
X160257200Y-112666666D01*
X160257200Y-112666666D02*
X160209580Y-112714285D01*
X160209580Y-112714285D02*
X160114342Y-112761904D01*
X160114342Y-112761904D02*
X159923866Y-112761904D01*
X159923866Y-112761904D02*
X159828628Y-112714285D01*
X159828628Y-112714285D02*
X159781009Y-112666666D01*
X159781009Y-112666666D02*
X159733390Y-112571428D01*
X134009580Y-113857142D02*
X134057200Y-113809523D01*
X134057200Y-113809523D02*
X134104819Y-113666666D01*
X134104819Y-113666666D02*
X134104819Y-113571428D01*
X134104819Y-113571428D02*
X134057200Y-113428571D01*
X134057200Y-113428571D02*
X133961961Y-113333333D01*
X133961961Y-113333333D02*
X133866723Y-113285714D01*
X133866723Y-113285714D02*
X133676247Y-113238095D01*
X133676247Y-113238095D02*
X133533390Y-113238095D01*
X133533390Y-113238095D02*
X133342914Y-113285714D01*
X133342914Y-113285714D02*
X133247676Y-113333333D01*
X133247676Y-113333333D02*
X133152438Y-113428571D01*
X133152438Y-113428571D02*
X133104819Y-113571428D01*
X133104819Y-113571428D02*
X133104819Y-113666666D01*
X133104819Y-113666666D02*
X133152438Y-113809523D01*
X133152438Y-113809523D02*
X133200057Y-113857142D01*
X133104819Y-114761904D02*
X133104819Y-114285714D01*
X133104819Y-114285714D02*
X133581009Y-114238095D01*
X133581009Y-114238095D02*
X133533390Y-114285714D01*
X133533390Y-114285714D02*
X133485771Y-114380952D01*
X133485771Y-114380952D02*
X133485771Y-114619047D01*
X133485771Y-114619047D02*
X133533390Y-114714285D01*
X133533390Y-114714285D02*
X133581009Y-114761904D01*
X133581009Y-114761904D02*
X133676247Y-114809523D01*
X133676247Y-114809523D02*
X133914342Y-114809523D01*
X133914342Y-114809523D02*
X134009580Y-114761904D01*
X134009580Y-114761904D02*
X134057200Y-114714285D01*
X134057200Y-114714285D02*
X134104819Y-114619047D01*
X134104819Y-114619047D02*
X134104819Y-114380952D01*
X134104819Y-114380952D02*
X134057200Y-114285714D01*
X134057200Y-114285714D02*
X134009580Y-114238095D01*
X133104819Y-115428571D02*
X133104819Y-115523809D01*
X133104819Y-115523809D02*
X133152438Y-115619047D01*
X133152438Y-115619047D02*
X133200057Y-115666666D01*
X133200057Y-115666666D02*
X133295295Y-115714285D01*
X133295295Y-115714285D02*
X133485771Y-115761904D01*
X133485771Y-115761904D02*
X133723866Y-115761904D01*
X133723866Y-115761904D02*
X133914342Y-115714285D01*
X133914342Y-115714285D02*
X134009580Y-115666666D01*
X134009580Y-115666666D02*
X134057200Y-115619047D01*
X134057200Y-115619047D02*
X134104819Y-115523809D01*
X134104819Y-115523809D02*
X134104819Y-115428571D01*
X134104819Y-115428571D02*
X134057200Y-115333333D01*
X134057200Y-115333333D02*
X134009580Y-115285714D01*
X134009580Y-115285714D02*
X133914342Y-115238095D01*
X133914342Y-115238095D02*
X133723866Y-115190476D01*
X133723866Y-115190476D02*
X133485771Y-115190476D01*
X133485771Y-115190476D02*
X133295295Y-115238095D01*
X133295295Y-115238095D02*
X133200057Y-115285714D01*
X133200057Y-115285714D02*
X133152438Y-115333333D01*
X133152438Y-115333333D02*
X133104819Y-115428571D01*
X130166666Y-127039580D02*
X130214285Y-127087200D01*
X130214285Y-127087200D02*
X130357142Y-127134819D01*
X130357142Y-127134819D02*
X130452380Y-127134819D01*
X130452380Y-127134819D02*
X130595237Y-127087200D01*
X130595237Y-127087200D02*
X130690475Y-126991961D01*
X130690475Y-126991961D02*
X130738094Y-126896723D01*
X130738094Y-126896723D02*
X130785713Y-126706247D01*
X130785713Y-126706247D02*
X130785713Y-126563390D01*
X130785713Y-126563390D02*
X130738094Y-126372914D01*
X130738094Y-126372914D02*
X130690475Y-126277676D01*
X130690475Y-126277676D02*
X130595237Y-126182438D01*
X130595237Y-126182438D02*
X130452380Y-126134819D01*
X130452380Y-126134819D02*
X130357142Y-126134819D01*
X130357142Y-126134819D02*
X130214285Y-126182438D01*
X130214285Y-126182438D02*
X130166666Y-126230057D01*
X129833332Y-126134819D02*
X129214285Y-126134819D01*
X129214285Y-126134819D02*
X129547618Y-126515771D01*
X129547618Y-126515771D02*
X129404761Y-126515771D01*
X129404761Y-126515771D02*
X129309523Y-126563390D01*
X129309523Y-126563390D02*
X129261904Y-126611009D01*
X129261904Y-126611009D02*
X129214285Y-126706247D01*
X129214285Y-126706247D02*
X129214285Y-126944342D01*
X129214285Y-126944342D02*
X129261904Y-127039580D01*
X129261904Y-127039580D02*
X129309523Y-127087200D01*
X129309523Y-127087200D02*
X129404761Y-127134819D01*
X129404761Y-127134819D02*
X129690475Y-127134819D01*
X129690475Y-127134819D02*
X129785713Y-127087200D01*
X129785713Y-127087200D02*
X129833332Y-127039580D01*
X157642857Y-132454819D02*
X157976190Y-131978628D01*
X158214285Y-132454819D02*
X158214285Y-131454819D01*
X158214285Y-131454819D02*
X157833333Y-131454819D01*
X157833333Y-131454819D02*
X157738095Y-131502438D01*
X157738095Y-131502438D02*
X157690476Y-131550057D01*
X157690476Y-131550057D02*
X157642857Y-131645295D01*
X157642857Y-131645295D02*
X157642857Y-131788152D01*
X157642857Y-131788152D02*
X157690476Y-131883390D01*
X157690476Y-131883390D02*
X157738095Y-131931009D01*
X157738095Y-131931009D02*
X157833333Y-131978628D01*
X157833333Y-131978628D02*
X158214285Y-131978628D01*
X156690476Y-132454819D02*
X157261904Y-132454819D01*
X156976190Y-132454819D02*
X156976190Y-131454819D01*
X156976190Y-131454819D02*
X157071428Y-131597676D01*
X157071428Y-131597676D02*
X157166666Y-131692914D01*
X157166666Y-131692914D02*
X157261904Y-131740533D01*
X155833333Y-131454819D02*
X156023809Y-131454819D01*
X156023809Y-131454819D02*
X156119047Y-131502438D01*
X156119047Y-131502438D02*
X156166666Y-131550057D01*
X156166666Y-131550057D02*
X156261904Y-131692914D01*
X156261904Y-131692914D02*
X156309523Y-131883390D01*
X156309523Y-131883390D02*
X156309523Y-132264342D01*
X156309523Y-132264342D02*
X156261904Y-132359580D01*
X156261904Y-132359580D02*
X156214285Y-132407200D01*
X156214285Y-132407200D02*
X156119047Y-132454819D01*
X156119047Y-132454819D02*
X155928571Y-132454819D01*
X155928571Y-132454819D02*
X155833333Y-132407200D01*
X155833333Y-132407200D02*
X155785714Y-132359580D01*
X155785714Y-132359580D02*
X155738095Y-132264342D01*
X155738095Y-132264342D02*
X155738095Y-132026247D01*
X155738095Y-132026247D02*
X155785714Y-131931009D01*
X155785714Y-131931009D02*
X155833333Y-131883390D01*
X155833333Y-131883390D02*
X155928571Y-131835771D01*
X155928571Y-131835771D02*
X156119047Y-131835771D01*
X156119047Y-131835771D02*
X156214285Y-131883390D01*
X156214285Y-131883390D02*
X156261904Y-131931009D01*
X156261904Y-131931009D02*
X156309523Y-132026247D01*
%TO.C,R5*%
D13*
X160172936Y-143765000D02*
X160627064Y-143765000D01*
X160172936Y-145235000D02*
X160627064Y-145235000D01*
%TO.C,C49*%
X144545000Y-112005000D02*
X146455000Y-112005000D01*
X144545000Y-116100000D02*
X144545000Y-112005000D01*
X146455000Y-112005000D02*
X146455000Y-116100000D01*
%TO.C,C2*%
X129266580Y-136238748D02*
X129266580Y-136761252D01*
X130736580Y-136238748D02*
X130736580Y-136761252D01*
%TO.C,R14*%
X131265000Y-111727064D02*
X131265000Y-111272936D01*
X132735000Y-111727064D02*
X132735000Y-111272936D01*
%TO.C,R15*%
X138272936Y-117765000D02*
X138727064Y-117765000D01*
X138272936Y-119235000D02*
X138727064Y-119235000D01*
%TO.C,R38*%
X160765000Y-111272936D02*
X160765000Y-111727064D01*
X162235000Y-111272936D02*
X162235000Y-111727064D01*
%TO.C,C50*%
X134590000Y-113788748D02*
X134590000Y-115211252D01*
X136410000Y-113788748D02*
X136410000Y-115211252D01*
%TO.C,C3*%
X129738748Y-124265000D02*
X130261252Y-124265000D01*
X129738748Y-125735000D02*
X130261252Y-125735000D01*
%TO.C,R16*%
X160748894Y-131270724D02*
X160294766Y-131270724D01*
X160748894Y-132740724D02*
X160294766Y-132740724D01*
%TD*%
D14*
X111500002Y-99000002D02*
X111500002Y-151000000D01*
X111500002Y-99000002D02*
G75*
G02*
X116000002Y-94500002I4499998J2D01*
G01*
X116000000Y-155500000D02*
G75*
G02*
X111500000Y-151000000I0J4500000D01*
G01*
X116000000Y-155500000D02*
X181000000Y-155500000D01*
X180999998Y-94500000D02*
X116000002Y-94500000D01*
X180999998Y-94500000D02*
G75*
G02*
X185500000Y-99000000I2J-4500000D01*
G01*
X185500000Y-151000000D02*
G75*
G02*
X181000000Y-155500000I-4500000J0D01*
G01*
X185500000Y-151000000D02*
X185500000Y-99000000D01*
M02*
