M48
; DRILL file KiCad 10.0.1 date 2026-06-11T16:57:50
; FORMAT={-:-/ absolute / metric / decimal}
; #@! TF.CreationDate,2026-06-11T16:57:50+03:00
; #@! TF.GenerationSoftware,Kicad,Pcbnew,10.0.1
; #@! TF.FileFunction,Plated,1,4,PTH
FMAT,2
METRIC
; #@! TA.AperFunction,Plated,PTH,ViaDrill
T1C0.300
; #@! TA.AperFunction,Plated,PTH,ComponentDrill
T2C0.690
; #@! TA.AperFunction,Plated,PTH,ComponentDrill
T3C1.000
; #@! TA.AperFunction,Plated,PTH,ComponentDrill
T4C1.300
; #@! TA.AperFunction,Plated,PTH,ComponentDrill
T5C1.800
%
G90
G05
T1
X121.5Y-138.5
X124.5Y-145.0
X125.5Y-133.5
X126.19Y-124.0
X127.5Y-143.5
X128.0Y-132.5
X128.73Y-121.23
X128.905Y-138.405
X130.0Y-140.0
X130.0Y-144.0
X131.345Y-134.595
X132.0Y-109.4
X132.0Y-132.5
X132.5Y-143.5
X133.5Y-112.5
X133.81Y-126.19
X134.5Y-133.5
X135.5Y-117.0
X136.5Y-118.5
X136.55Y-122.95
X138.5Y-138.5
X145.5Y-117.0
X148.0Y-107.0
X148.0Y-109.0
X148.5Y-106.0
X148.5Y-108.0
X149.0Y-107.0
X149.0Y-109.0
X149.5Y-106.0
X149.5Y-108.0
X150.0Y-107.0
X150.5Y-106.0
X150.5Y-108.0
X151.0Y-107.0
X151.5Y-106.0
X151.5Y-108.0
X152.5Y-108.0
X153.5Y-108.0
X155.0Y-110.5
X155.0Y-111.5
X155.0Y-112.5
X155.5Y-108.0
X156.0Y-109.0
X156.0Y-110.0
X156.0Y-111.0
X156.0Y-112.0
X156.0Y-113.0
X156.0Y-114.0
X156.0Y-116.0
X156.5Y-108.0
X156.5Y-115.0
X157.0Y-109.0
X157.0Y-114.0
X157.0Y-116.0
X157.5Y-108.0
X157.5Y-115.0
X158.0Y-107.0
X158.0Y-109.0
X158.0Y-114.0
X158.0Y-116.0
X158.5Y-108.0
X158.5Y-115.0
X159.0Y-107.0
X159.0Y-109.0
X159.0Y-114.0
X159.0Y-116.0
X161.5Y-109.5
X161.5Y-113.6
T2
X115.2Y-135.89
X117.739Y-133.35
X120.279Y-135.89
X139.7Y-135.89
X142.239Y-133.35
X144.779Y-135.89
T3
X137.96Y-113.125
X140.5Y-113.125
X143.04Y-113.125
T4
X148.15Y-120.75
X148.15Y-128.25
X163.41Y-120.75
X163.41Y-128.25
X168.45Y-120.75
X168.45Y-128.25
X173.49Y-120.75
X173.49Y-128.25
T5
X126.5Y-108.775
X126.5Y-114.275
X158.3Y-135.5
X158.3Y-141.0
X162.5Y-135.5
X162.5Y-141.0
X168.5Y-108.775
X168.5Y-114.275
X173.5Y-135.5
X173.5Y-141.0
M30
