%TF.GenerationSoftware,KiCad,Pcbnew,10.0.1*%
%TF.CreationDate,2026-06-11T16:57:48+03:00*%
%TF.ProjectId,Temperature_PCB,54656d70-6572-4617-9475-72655f504342,rev?*%
%TF.SameCoordinates,Original*%
%TF.FileFunction,Legend,Top*%
%TF.FilePolarity,Positive*%
%FSLAX46Y46*%
G04 Gerber Fmt 4.6, Leading zero omitted, Abs format (unit mm)*
G04 Created by KiCad (PCBNEW 10.0.1) date 2026-06-11 16:57:48*
%MOMM*%
%LPD*%
G01*
G04 APERTURE LIST*
%ADD10C,0.100000*%
%ADD11C,0.300000*%
%ADD12C,1.000000*%
%ADD13C,0.500000*%
%ADD14C,0.200000*%
%ADD15C,0.400000*%
%ADD16C,0.150000*%
%ADD17C,0.102000*%
%ADD18C,0.254000*%
%ADD19C,0.177800*%
%ADD20C,0.120000*%
%ADD21C,0.000000*%
%TA.AperFunction,Profile*%
%ADD22C,0.050000*%
%TD*%
G04 APERTURE END LIST*
D10*
X130000000Y-149000000D02*
X129500000Y-148500000D01*
X130500000Y-148500000D01*
X130000000Y-149000000D01*
G36*
X130000000Y-149000000D02*
G01*
X129500000Y-148500000D01*
X130500000Y-148500000D01*
X130000000Y-149000000D01*
G37*
X137000000Y-149000000D02*
X136500000Y-148500000D01*
X137500000Y-148500000D01*
X137000000Y-149000000D01*
G36*
X137000000Y-149000000D02*
G01*
X136500000Y-148500000D01*
X137500000Y-148500000D01*
X137000000Y-149000000D01*
G37*
D11*
X111500000Y-151000000D02*
G75*
G02*
X116000000Y-155500000I4500000J0D01*
G01*
D12*
X113000000Y-96000000D02*
X119000000Y-102000000D01*
X113000000Y-148000000D02*
X119000000Y-154000000D01*
D11*
X116000000Y-94500000D02*
G75*
G02*
X111500000Y-99000000I0J-4500000D01*
G01*
D12*
X119000000Y-96000000D02*
X113000000Y-102000000D01*
X119000000Y-148000000D02*
X113000000Y-154000000D01*
D11*
X127000000Y-148500000D02*
G75*
G02*
X130000000Y-148500000I1500000J0D01*
G01*
X136999301Y-148500000D02*
G75*
G02*
X139999301Y-148500000I1500000J0D01*
G01*
D13*
X168000000Y-132500000D02*
X185000000Y-132500000D01*
X168000000Y-155000000D02*
X168000000Y-132500000D01*
D12*
X178000000Y-96000000D02*
X184000000Y-102000000D01*
X178000000Y-148000000D02*
X184000000Y-154000000D01*
D11*
X181000000Y-155500000D02*
G75*
G02*
X185500000Y-151000000I0J4500000D01*
G01*
D12*
X184000000Y-96000000D02*
X178000000Y-102000000D01*
X184000000Y-148000000D02*
X178000000Y-154000000D01*
D11*
X185500000Y-99000000D02*
G75*
G02*
X181000000Y-94500000I-4500000J0D01*
G01*
D14*
X116833333Y-141147247D02*
X116357143Y-141147247D01*
X116357143Y-141147247D02*
X116357143Y-140147247D01*
X117309524Y-141147247D02*
X117214286Y-141099628D01*
X117214286Y-141099628D02*
X117166667Y-141052008D01*
X117166667Y-141052008D02*
X117119048Y-140956770D01*
X117119048Y-140956770D02*
X117119048Y-140671056D01*
X117119048Y-140671056D02*
X117166667Y-140575818D01*
X117166667Y-140575818D02*
X117214286Y-140528199D01*
X117214286Y-140528199D02*
X117309524Y-140480580D01*
X117309524Y-140480580D02*
X117452381Y-140480580D01*
X117452381Y-140480580D02*
X117547619Y-140528199D01*
X117547619Y-140528199D02*
X117595238Y-140575818D01*
X117595238Y-140575818D02*
X117642857Y-140671056D01*
X117642857Y-140671056D02*
X117642857Y-140956770D01*
X117642857Y-140956770D02*
X117595238Y-141052008D01*
X117595238Y-141052008D02*
X117547619Y-141099628D01*
X117547619Y-141099628D02*
X117452381Y-141147247D01*
X117452381Y-141147247D02*
X117309524Y-141147247D01*
X117976191Y-140480580D02*
X118166667Y-141147247D01*
X118166667Y-141147247D02*
X118357143Y-140671056D01*
X118357143Y-140671056D02*
X118547619Y-141147247D01*
X118547619Y-141147247D02*
X118738095Y-140480580D01*
X115666667Y-141757191D02*
X116238095Y-141757191D01*
X115952381Y-142757191D02*
X115952381Y-141757191D01*
X116952381Y-142709572D02*
X116857143Y-142757191D01*
X116857143Y-142757191D02*
X116666667Y-142757191D01*
X116666667Y-142757191D02*
X116571429Y-142709572D01*
X116571429Y-142709572D02*
X116523810Y-142614333D01*
X116523810Y-142614333D02*
X116523810Y-142233381D01*
X116523810Y-142233381D02*
X116571429Y-142138143D01*
X116571429Y-142138143D02*
X116666667Y-142090524D01*
X116666667Y-142090524D02*
X116857143Y-142090524D01*
X116857143Y-142090524D02*
X116952381Y-142138143D01*
X116952381Y-142138143D02*
X117000000Y-142233381D01*
X117000000Y-142233381D02*
X117000000Y-142328619D01*
X117000000Y-142328619D02*
X116523810Y-142423857D01*
X117428572Y-142757191D02*
X117428572Y-142090524D01*
X117428572Y-142185762D02*
X117476191Y-142138143D01*
X117476191Y-142138143D02*
X117571429Y-142090524D01*
X117571429Y-142090524D02*
X117714286Y-142090524D01*
X117714286Y-142090524D02*
X117809524Y-142138143D01*
X117809524Y-142138143D02*
X117857143Y-142233381D01*
X117857143Y-142233381D02*
X117857143Y-142757191D01*
X117857143Y-142233381D02*
X117904762Y-142138143D01*
X117904762Y-142138143D02*
X118000000Y-142090524D01*
X118000000Y-142090524D02*
X118142857Y-142090524D01*
X118142857Y-142090524D02*
X118238096Y-142138143D01*
X118238096Y-142138143D02*
X118285715Y-142233381D01*
X118285715Y-142233381D02*
X118285715Y-142757191D01*
X118761905Y-142090524D02*
X118761905Y-143090524D01*
X118761905Y-142138143D02*
X118857143Y-142090524D01*
X118857143Y-142090524D02*
X119047619Y-142090524D01*
X119047619Y-142090524D02*
X119142857Y-142138143D01*
X119142857Y-142138143D02*
X119190476Y-142185762D01*
X119190476Y-142185762D02*
X119238095Y-142281000D01*
X119238095Y-142281000D02*
X119238095Y-142566714D01*
X119238095Y-142566714D02*
X119190476Y-142661952D01*
X119190476Y-142661952D02*
X119142857Y-142709572D01*
X119142857Y-142709572D02*
X119047619Y-142757191D01*
X119047619Y-142757191D02*
X118857143Y-142757191D01*
X118857143Y-142757191D02*
X118761905Y-142709572D01*
X125261905Y-149952219D02*
X125833333Y-149952219D01*
X125547619Y-150952219D02*
X125547619Y-149952219D01*
X126547619Y-150904600D02*
X126452381Y-150952219D01*
X126452381Y-150952219D02*
X126261905Y-150952219D01*
X126261905Y-150952219D02*
X126166667Y-150904600D01*
X126166667Y-150904600D02*
X126119048Y-150809361D01*
X126119048Y-150809361D02*
X126119048Y-150428409D01*
X126119048Y-150428409D02*
X126166667Y-150333171D01*
X126166667Y-150333171D02*
X126261905Y-150285552D01*
X126261905Y-150285552D02*
X126452381Y-150285552D01*
X126452381Y-150285552D02*
X126547619Y-150333171D01*
X126547619Y-150333171D02*
X126595238Y-150428409D01*
X126595238Y-150428409D02*
X126595238Y-150523647D01*
X126595238Y-150523647D02*
X126119048Y-150618885D01*
X127023810Y-150952219D02*
X127023810Y-150285552D01*
X127023810Y-150380790D02*
X127071429Y-150333171D01*
X127071429Y-150333171D02*
X127166667Y-150285552D01*
X127166667Y-150285552D02*
X127309524Y-150285552D01*
X127309524Y-150285552D02*
X127404762Y-150333171D01*
X127404762Y-150333171D02*
X127452381Y-150428409D01*
X127452381Y-150428409D02*
X127452381Y-150952219D01*
X127452381Y-150428409D02*
X127500000Y-150333171D01*
X127500000Y-150333171D02*
X127595238Y-150285552D01*
X127595238Y-150285552D02*
X127738095Y-150285552D01*
X127738095Y-150285552D02*
X127833334Y-150333171D01*
X127833334Y-150333171D02*
X127880953Y-150428409D01*
X127880953Y-150428409D02*
X127880953Y-150952219D01*
X128357143Y-150285552D02*
X128357143Y-151285552D01*
X128357143Y-150333171D02*
X128452381Y-150285552D01*
X128452381Y-150285552D02*
X128642857Y-150285552D01*
X128642857Y-150285552D02*
X128738095Y-150333171D01*
X128738095Y-150333171D02*
X128785714Y-150380790D01*
X128785714Y-150380790D02*
X128833333Y-150476028D01*
X128833333Y-150476028D02*
X128833333Y-150761742D01*
X128833333Y-150761742D02*
X128785714Y-150856980D01*
X128785714Y-150856980D02*
X128738095Y-150904600D01*
X128738095Y-150904600D02*
X128642857Y-150952219D01*
X128642857Y-150952219D02*
X128452381Y-150952219D01*
X128452381Y-150952219D02*
X128357143Y-150904600D01*
X130023810Y-149952219D02*
X130023810Y-150761742D01*
X130023810Y-150761742D02*
X130071429Y-150856980D01*
X130071429Y-150856980D02*
X130119048Y-150904600D01*
X130119048Y-150904600D02*
X130214286Y-150952219D01*
X130214286Y-150952219D02*
X130404762Y-150952219D01*
X130404762Y-150952219D02*
X130500000Y-150904600D01*
X130500000Y-150904600D02*
X130547619Y-150856980D01*
X130547619Y-150856980D02*
X130595238Y-150761742D01*
X130595238Y-150761742D02*
X130595238Y-149952219D01*
X131071429Y-150952219D02*
X131071429Y-149952219D01*
X131071429Y-149952219D02*
X131452381Y-149952219D01*
X131452381Y-149952219D02*
X131547619Y-149999838D01*
X131547619Y-149999838D02*
X131595238Y-150047457D01*
X131595238Y-150047457D02*
X131642857Y-150142695D01*
X131642857Y-150142695D02*
X131642857Y-150285552D01*
X131642857Y-150285552D02*
X131595238Y-150380790D01*
X131595238Y-150380790D02*
X131547619Y-150428409D01*
X131547619Y-150428409D02*
X131452381Y-150476028D01*
X131452381Y-150476028D02*
X131071429Y-150476028D01*
X130238095Y-114571266D02*
X131000000Y-114571266D01*
X130619047Y-114952219D02*
X130619047Y-114190314D01*
X131428571Y-114047457D02*
X131476190Y-113999838D01*
X131476190Y-113999838D02*
X131571428Y-113952219D01*
X131571428Y-113952219D02*
X131809523Y-113952219D01*
X131809523Y-113952219D02*
X131904761Y-113999838D01*
X131904761Y-113999838D02*
X131952380Y-114047457D01*
X131952380Y-114047457D02*
X131999999Y-114142695D01*
X131999999Y-114142695D02*
X131999999Y-114237933D01*
X131999999Y-114237933D02*
X131952380Y-114380790D01*
X131952380Y-114380790D02*
X131380952Y-114952219D01*
X131380952Y-114952219D02*
X131999999Y-114952219D01*
X132857142Y-114285552D02*
X132857142Y-114952219D01*
X132619047Y-113904600D02*
X132380952Y-114618885D01*
X132380952Y-114618885D02*
X132999999Y-114618885D01*
X133238095Y-113952219D02*
X133571428Y-114952219D01*
X133571428Y-114952219D02*
X133904761Y-113952219D01*
X131595237Y-118856980D02*
X131547618Y-118904600D01*
X131547618Y-118904600D02*
X131404761Y-118952219D01*
X131404761Y-118952219D02*
X131309523Y-118952219D01*
X131309523Y-118952219D02*
X131166666Y-118904600D01*
X131166666Y-118904600D02*
X131071428Y-118809361D01*
X131071428Y-118809361D02*
X131023809Y-118714123D01*
X131023809Y-118714123D02*
X130976190Y-118523647D01*
X130976190Y-118523647D02*
X130976190Y-118380790D01*
X130976190Y-118380790D02*
X131023809Y-118190314D01*
X131023809Y-118190314D02*
X131071428Y-118095076D01*
X131071428Y-118095076D02*
X131166666Y-117999838D01*
X131166666Y-117999838D02*
X131309523Y-117952219D01*
X131309523Y-117952219D02*
X131404761Y-117952219D01*
X131404761Y-117952219D02*
X131547618Y-117999838D01*
X131547618Y-117999838D02*
X131595237Y-118047457D01*
X132166666Y-118952219D02*
X132071428Y-118904600D01*
X132071428Y-118904600D02*
X132023809Y-118856980D01*
X132023809Y-118856980D02*
X131976190Y-118761742D01*
X131976190Y-118761742D02*
X131976190Y-118476028D01*
X131976190Y-118476028D02*
X132023809Y-118380790D01*
X132023809Y-118380790D02*
X132071428Y-118333171D01*
X132071428Y-118333171D02*
X132166666Y-118285552D01*
X132166666Y-118285552D02*
X132309523Y-118285552D01*
X132309523Y-118285552D02*
X132404761Y-118333171D01*
X132404761Y-118333171D02*
X132452380Y-118380790D01*
X132452380Y-118380790D02*
X132499999Y-118476028D01*
X132499999Y-118476028D02*
X132499999Y-118761742D01*
X132499999Y-118761742D02*
X132452380Y-118856980D01*
X132452380Y-118856980D02*
X132404761Y-118904600D01*
X132404761Y-118904600D02*
X132309523Y-118952219D01*
X132309523Y-118952219D02*
X132166666Y-118952219D01*
X132928571Y-118285552D02*
X132928571Y-118952219D01*
X132928571Y-118380790D02*
X132976190Y-118333171D01*
X132976190Y-118333171D02*
X133071428Y-118285552D01*
X133071428Y-118285552D02*
X133214285Y-118285552D01*
X133214285Y-118285552D02*
X133309523Y-118333171D01*
X133309523Y-118333171D02*
X133357142Y-118428409D01*
X133357142Y-118428409D02*
X133357142Y-118952219D01*
X133690476Y-118285552D02*
X134071428Y-118285552D01*
X133833333Y-117952219D02*
X133833333Y-118809361D01*
X133833333Y-118809361D02*
X133880952Y-118904600D01*
X133880952Y-118904600D02*
X133976190Y-118952219D01*
X133976190Y-118952219D02*
X134071428Y-118952219D01*
X134404762Y-118952219D02*
X134404762Y-118285552D01*
X134404762Y-118476028D02*
X134452381Y-118380790D01*
X134452381Y-118380790D02*
X134500000Y-118333171D01*
X134500000Y-118333171D02*
X134595238Y-118285552D01*
X134595238Y-118285552D02*
X134690476Y-118285552D01*
X135166667Y-118952219D02*
X135071429Y-118904600D01*
X135071429Y-118904600D02*
X135023810Y-118856980D01*
X135023810Y-118856980D02*
X134976191Y-118761742D01*
X134976191Y-118761742D02*
X134976191Y-118476028D01*
X134976191Y-118476028D02*
X135023810Y-118380790D01*
X135023810Y-118380790D02*
X135071429Y-118333171D01*
X135071429Y-118333171D02*
X135166667Y-118285552D01*
X135166667Y-118285552D02*
X135309524Y-118285552D01*
X135309524Y-118285552D02*
X135404762Y-118333171D01*
X135404762Y-118333171D02*
X135452381Y-118380790D01*
X135452381Y-118380790D02*
X135500000Y-118476028D01*
X135500000Y-118476028D02*
X135500000Y-118761742D01*
X135500000Y-118761742D02*
X135452381Y-118856980D01*
X135452381Y-118856980D02*
X135404762Y-118904600D01*
X135404762Y-118904600D02*
X135309524Y-118952219D01*
X135309524Y-118952219D02*
X135166667Y-118952219D01*
X136071429Y-118952219D02*
X135976191Y-118904600D01*
X135976191Y-118904600D02*
X135928572Y-118809361D01*
X135928572Y-118809361D02*
X135928572Y-117952219D01*
X134165968Y-149952219D02*
X134737396Y-149952219D01*
X134451682Y-150952219D02*
X134451682Y-149952219D01*
X135451682Y-150904600D02*
X135356444Y-150952219D01*
X135356444Y-150952219D02*
X135165968Y-150952219D01*
X135165968Y-150952219D02*
X135070730Y-150904600D01*
X135070730Y-150904600D02*
X135023111Y-150809361D01*
X135023111Y-150809361D02*
X135023111Y-150428409D01*
X135023111Y-150428409D02*
X135070730Y-150333171D01*
X135070730Y-150333171D02*
X135165968Y-150285552D01*
X135165968Y-150285552D02*
X135356444Y-150285552D01*
X135356444Y-150285552D02*
X135451682Y-150333171D01*
X135451682Y-150333171D02*
X135499301Y-150428409D01*
X135499301Y-150428409D02*
X135499301Y-150523647D01*
X135499301Y-150523647D02*
X135023111Y-150618885D01*
X135927873Y-150952219D02*
X135927873Y-150285552D01*
X135927873Y-150380790D02*
X135975492Y-150333171D01*
X135975492Y-150333171D02*
X136070730Y-150285552D01*
X136070730Y-150285552D02*
X136213587Y-150285552D01*
X136213587Y-150285552D02*
X136308825Y-150333171D01*
X136308825Y-150333171D02*
X136356444Y-150428409D01*
X136356444Y-150428409D02*
X136356444Y-150952219D01*
X136356444Y-150428409D02*
X136404063Y-150333171D01*
X136404063Y-150333171D02*
X136499301Y-150285552D01*
X136499301Y-150285552D02*
X136642158Y-150285552D01*
X136642158Y-150285552D02*
X136737397Y-150333171D01*
X136737397Y-150333171D02*
X136785016Y-150428409D01*
X136785016Y-150428409D02*
X136785016Y-150952219D01*
X137261206Y-150285552D02*
X137261206Y-151285552D01*
X137261206Y-150333171D02*
X137356444Y-150285552D01*
X137356444Y-150285552D02*
X137546920Y-150285552D01*
X137546920Y-150285552D02*
X137642158Y-150333171D01*
X137642158Y-150333171D02*
X137689777Y-150380790D01*
X137689777Y-150380790D02*
X137737396Y-150476028D01*
X137737396Y-150476028D02*
X137737396Y-150761742D01*
X137737396Y-150761742D02*
X137689777Y-150856980D01*
X137689777Y-150856980D02*
X137642158Y-150904600D01*
X137642158Y-150904600D02*
X137546920Y-150952219D01*
X137546920Y-150952219D02*
X137356444Y-150952219D01*
X137356444Y-150952219D02*
X137261206Y-150904600D01*
X138927873Y-150952219D02*
X138927873Y-149952219D01*
X138927873Y-149952219D02*
X139165968Y-149952219D01*
X139165968Y-149952219D02*
X139308825Y-149999838D01*
X139308825Y-149999838D02*
X139404063Y-150095076D01*
X139404063Y-150095076D02*
X139451682Y-150190314D01*
X139451682Y-150190314D02*
X139499301Y-150380790D01*
X139499301Y-150380790D02*
X139499301Y-150523647D01*
X139499301Y-150523647D02*
X139451682Y-150714123D01*
X139451682Y-150714123D02*
X139404063Y-150809361D01*
X139404063Y-150809361D02*
X139308825Y-150904600D01*
X139308825Y-150904600D02*
X139165968Y-150952219D01*
X139165968Y-150952219D02*
X138927873Y-150952219D01*
X140118349Y-149952219D02*
X140308825Y-149952219D01*
X140308825Y-149952219D02*
X140404063Y-149999838D01*
X140404063Y-149999838D02*
X140499301Y-150095076D01*
X140499301Y-150095076D02*
X140546920Y-150285552D01*
X140546920Y-150285552D02*
X140546920Y-150618885D01*
X140546920Y-150618885D02*
X140499301Y-150809361D01*
X140499301Y-150809361D02*
X140404063Y-150904600D01*
X140404063Y-150904600D02*
X140308825Y-150952219D01*
X140308825Y-150952219D02*
X140118349Y-150952219D01*
X140118349Y-150952219D02*
X140023111Y-150904600D01*
X140023111Y-150904600D02*
X139927873Y-150809361D01*
X139927873Y-150809361D02*
X139880254Y-150618885D01*
X139880254Y-150618885D02*
X139880254Y-150285552D01*
X139880254Y-150285552D02*
X139927873Y-150095076D01*
X139927873Y-150095076D02*
X140023111Y-149999838D01*
X140023111Y-149999838D02*
X140118349Y-149952219D01*
X140880254Y-149952219D02*
X141118349Y-150952219D01*
X141118349Y-150952219D02*
X141308825Y-150237933D01*
X141308825Y-150237933D02*
X141499301Y-150952219D01*
X141499301Y-150952219D02*
X141737397Y-149952219D01*
X142118349Y-150952219D02*
X142118349Y-149952219D01*
X142118349Y-149952219D02*
X142689777Y-150952219D01*
X142689777Y-150952219D02*
X142689777Y-149952219D01*
X140571429Y-141147247D02*
X140571429Y-140147247D01*
X140571429Y-140623437D02*
X141142857Y-140623437D01*
X141142857Y-141147247D02*
X141142857Y-140147247D01*
X141619048Y-141147247D02*
X141619048Y-140480580D01*
X141619048Y-140147247D02*
X141571429Y-140194866D01*
X141571429Y-140194866D02*
X141619048Y-140242485D01*
X141619048Y-140242485D02*
X141666667Y-140194866D01*
X141666667Y-140194866D02*
X141619048Y-140147247D01*
X141619048Y-140147247D02*
X141619048Y-140242485D01*
X142523809Y-140480580D02*
X142523809Y-141290104D01*
X142523809Y-141290104D02*
X142476190Y-141385342D01*
X142476190Y-141385342D02*
X142428571Y-141432961D01*
X142428571Y-141432961D02*
X142333333Y-141480580D01*
X142333333Y-141480580D02*
X142190476Y-141480580D01*
X142190476Y-141480580D02*
X142095238Y-141432961D01*
X142523809Y-141099628D02*
X142428571Y-141147247D01*
X142428571Y-141147247D02*
X142238095Y-141147247D01*
X142238095Y-141147247D02*
X142142857Y-141099628D01*
X142142857Y-141099628D02*
X142095238Y-141052008D01*
X142095238Y-141052008D02*
X142047619Y-140956770D01*
X142047619Y-140956770D02*
X142047619Y-140671056D01*
X142047619Y-140671056D02*
X142095238Y-140575818D01*
X142095238Y-140575818D02*
X142142857Y-140528199D01*
X142142857Y-140528199D02*
X142238095Y-140480580D01*
X142238095Y-140480580D02*
X142428571Y-140480580D01*
X142428571Y-140480580D02*
X142523809Y-140528199D01*
X143000000Y-141147247D02*
X143000000Y-140147247D01*
X143428571Y-141147247D02*
X143428571Y-140623437D01*
X143428571Y-140623437D02*
X143380952Y-140528199D01*
X143380952Y-140528199D02*
X143285714Y-140480580D01*
X143285714Y-140480580D02*
X143142857Y-140480580D01*
X143142857Y-140480580D02*
X143047619Y-140528199D01*
X143047619Y-140528199D02*
X143000000Y-140575818D01*
X140166667Y-141757191D02*
X140738095Y-141757191D01*
X140452381Y-142757191D02*
X140452381Y-141757191D01*
X141452381Y-142709572D02*
X141357143Y-142757191D01*
X141357143Y-142757191D02*
X141166667Y-142757191D01*
X141166667Y-142757191D02*
X141071429Y-142709572D01*
X141071429Y-142709572D02*
X141023810Y-142614333D01*
X141023810Y-142614333D02*
X141023810Y-142233381D01*
X141023810Y-142233381D02*
X141071429Y-142138143D01*
X141071429Y-142138143D02*
X141166667Y-142090524D01*
X141166667Y-142090524D02*
X141357143Y-142090524D01*
X141357143Y-142090524D02*
X141452381Y-142138143D01*
X141452381Y-142138143D02*
X141500000Y-142233381D01*
X141500000Y-142233381D02*
X141500000Y-142328619D01*
X141500000Y-142328619D02*
X141023810Y-142423857D01*
X141928572Y-142757191D02*
X141928572Y-142090524D01*
X141928572Y-142185762D02*
X141976191Y-142138143D01*
X141976191Y-142138143D02*
X142071429Y-142090524D01*
X142071429Y-142090524D02*
X142214286Y-142090524D01*
X142214286Y-142090524D02*
X142309524Y-142138143D01*
X142309524Y-142138143D02*
X142357143Y-142233381D01*
X142357143Y-142233381D02*
X142357143Y-142757191D01*
X142357143Y-142233381D02*
X142404762Y-142138143D01*
X142404762Y-142138143D02*
X142500000Y-142090524D01*
X142500000Y-142090524D02*
X142642857Y-142090524D01*
X142642857Y-142090524D02*
X142738096Y-142138143D01*
X142738096Y-142138143D02*
X142785715Y-142233381D01*
X142785715Y-142233381D02*
X142785715Y-142757191D01*
X143261905Y-142090524D02*
X143261905Y-143090524D01*
X143261905Y-142138143D02*
X143357143Y-142090524D01*
X143357143Y-142090524D02*
X143547619Y-142090524D01*
X143547619Y-142090524D02*
X143642857Y-142138143D01*
X143642857Y-142138143D02*
X143690476Y-142185762D01*
X143690476Y-142185762D02*
X143738095Y-142281000D01*
X143738095Y-142281000D02*
X143738095Y-142566714D01*
X143738095Y-142566714D02*
X143690476Y-142661952D01*
X143690476Y-142661952D02*
X143642857Y-142709572D01*
X143642857Y-142709572D02*
X143547619Y-142757191D01*
X143547619Y-142757191D02*
X143357143Y-142757191D01*
X143357143Y-142757191D02*
X143261905Y-142709572D01*
X160214286Y-114571266D02*
X160976191Y-114571266D01*
X160595238Y-114952219D02*
X160595238Y-114190314D01*
X161928571Y-113952219D02*
X161452381Y-113952219D01*
X161452381Y-113952219D02*
X161404762Y-114428409D01*
X161404762Y-114428409D02*
X161452381Y-114380790D01*
X161452381Y-114380790D02*
X161547619Y-114333171D01*
X161547619Y-114333171D02*
X161785714Y-114333171D01*
X161785714Y-114333171D02*
X161880952Y-114380790D01*
X161880952Y-114380790D02*
X161928571Y-114428409D01*
X161928571Y-114428409D02*
X161976190Y-114523647D01*
X161976190Y-114523647D02*
X161976190Y-114761742D01*
X161976190Y-114761742D02*
X161928571Y-114856980D01*
X161928571Y-114856980D02*
X161880952Y-114904600D01*
X161880952Y-114904600D02*
X161785714Y-114952219D01*
X161785714Y-114952219D02*
X161547619Y-114952219D01*
X161547619Y-114952219D02*
X161452381Y-114904600D01*
X161452381Y-114904600D02*
X161404762Y-114856980D01*
X162261905Y-113952219D02*
X162595238Y-114952219D01*
X162595238Y-114952219D02*
X162928571Y-113952219D01*
X114452219Y-127333333D02*
X114452219Y-126761905D01*
X115452219Y-127047619D02*
X114452219Y-127047619D01*
X115404600Y-126047619D02*
X115452219Y-126142857D01*
X115452219Y-126142857D02*
X115452219Y-126333333D01*
X115452219Y-126333333D02*
X115404600Y-126428571D01*
X115404600Y-126428571D02*
X115309361Y-126476190D01*
X115309361Y-126476190D02*
X114928409Y-126476190D01*
X114928409Y-126476190D02*
X114833171Y-126428571D01*
X114833171Y-126428571D02*
X114785552Y-126333333D01*
X114785552Y-126333333D02*
X114785552Y-126142857D01*
X114785552Y-126142857D02*
X114833171Y-126047619D01*
X114833171Y-126047619D02*
X114928409Y-126000000D01*
X114928409Y-126000000D02*
X115023647Y-126000000D01*
X115023647Y-126000000D02*
X115118885Y-126476190D01*
X115452219Y-125571428D02*
X114785552Y-125571428D01*
X114880790Y-125571428D02*
X114833171Y-125523809D01*
X114833171Y-125523809D02*
X114785552Y-125428571D01*
X114785552Y-125428571D02*
X114785552Y-125285714D01*
X114785552Y-125285714D02*
X114833171Y-125190476D01*
X114833171Y-125190476D02*
X114928409Y-125142857D01*
X114928409Y-125142857D02*
X115452219Y-125142857D01*
X114928409Y-125142857D02*
X114833171Y-125095238D01*
X114833171Y-125095238D02*
X114785552Y-125000000D01*
X114785552Y-125000000D02*
X114785552Y-124857143D01*
X114785552Y-124857143D02*
X114833171Y-124761904D01*
X114833171Y-124761904D02*
X114928409Y-124714285D01*
X114928409Y-124714285D02*
X115452219Y-124714285D01*
X114785552Y-124238095D02*
X115785552Y-124238095D01*
X114833171Y-124238095D02*
X114785552Y-124142857D01*
X114785552Y-124142857D02*
X114785552Y-123952381D01*
X114785552Y-123952381D02*
X114833171Y-123857143D01*
X114833171Y-123857143D02*
X114880790Y-123809524D01*
X114880790Y-123809524D02*
X114976028Y-123761905D01*
X114976028Y-123761905D02*
X115261742Y-123761905D01*
X115261742Y-123761905D02*
X115356980Y-123809524D01*
X115356980Y-123809524D02*
X115404600Y-123857143D01*
X115404600Y-123857143D02*
X115452219Y-123952381D01*
X115452219Y-123952381D02*
X115452219Y-124142857D01*
X115452219Y-124142857D02*
X115404600Y-124238095D01*
X115404600Y-122952381D02*
X115452219Y-123047619D01*
X115452219Y-123047619D02*
X115452219Y-123238095D01*
X115452219Y-123238095D02*
X115404600Y-123333333D01*
X115404600Y-123333333D02*
X115309361Y-123380952D01*
X115309361Y-123380952D02*
X114928409Y-123380952D01*
X114928409Y-123380952D02*
X114833171Y-123333333D01*
X114833171Y-123333333D02*
X114785552Y-123238095D01*
X114785552Y-123238095D02*
X114785552Y-123047619D01*
X114785552Y-123047619D02*
X114833171Y-122952381D01*
X114833171Y-122952381D02*
X114928409Y-122904762D01*
X114928409Y-122904762D02*
X115023647Y-122904762D01*
X115023647Y-122904762D02*
X115118885Y-123380952D01*
X115452219Y-122476190D02*
X114785552Y-122476190D01*
X114976028Y-122476190D02*
X114880790Y-122428571D01*
X114880790Y-122428571D02*
X114833171Y-122380952D01*
X114833171Y-122380952D02*
X114785552Y-122285714D01*
X114785552Y-122285714D02*
X114785552Y-122190476D01*
X115452219Y-121428571D02*
X114928409Y-121428571D01*
X114928409Y-121428571D02*
X114833171Y-121476190D01*
X114833171Y-121476190D02*
X114785552Y-121571428D01*
X114785552Y-121571428D02*
X114785552Y-121761904D01*
X114785552Y-121761904D02*
X114833171Y-121857142D01*
X115404600Y-121428571D02*
X115452219Y-121523809D01*
X115452219Y-121523809D02*
X115452219Y-121761904D01*
X115452219Y-121761904D02*
X115404600Y-121857142D01*
X115404600Y-121857142D02*
X115309361Y-121904761D01*
X115309361Y-121904761D02*
X115214123Y-121904761D01*
X115214123Y-121904761D02*
X115118885Y-121857142D01*
X115118885Y-121857142D02*
X115071266Y-121761904D01*
X115071266Y-121761904D02*
X115071266Y-121523809D01*
X115071266Y-121523809D02*
X115023647Y-121428571D01*
X114785552Y-121095237D02*
X114785552Y-120714285D01*
X114452219Y-120952380D02*
X115309361Y-120952380D01*
X115309361Y-120952380D02*
X115404600Y-120904761D01*
X115404600Y-120904761D02*
X115452219Y-120809523D01*
X115452219Y-120809523D02*
X115452219Y-120714285D01*
X114785552Y-119952380D02*
X115452219Y-119952380D01*
X114785552Y-120380951D02*
X115309361Y-120380951D01*
X115309361Y-120380951D02*
X115404600Y-120333332D01*
X115404600Y-120333332D02*
X115452219Y-120238094D01*
X115452219Y-120238094D02*
X115452219Y-120095237D01*
X115452219Y-120095237D02*
X115404600Y-119999999D01*
X115404600Y-119999999D02*
X115356980Y-119952380D01*
X115452219Y-119476189D02*
X114785552Y-119476189D01*
X114976028Y-119476189D02*
X114880790Y-119428570D01*
X114880790Y-119428570D02*
X114833171Y-119380951D01*
X114833171Y-119380951D02*
X114785552Y-119285713D01*
X114785552Y-119285713D02*
X114785552Y-119190475D01*
X115404600Y-118476189D02*
X115452219Y-118571427D01*
X115452219Y-118571427D02*
X115452219Y-118761903D01*
X115452219Y-118761903D02*
X115404600Y-118857141D01*
X115404600Y-118857141D02*
X115309361Y-118904760D01*
X115309361Y-118904760D02*
X114928409Y-118904760D01*
X114928409Y-118904760D02*
X114833171Y-118857141D01*
X114833171Y-118857141D02*
X114785552Y-118761903D01*
X114785552Y-118761903D02*
X114785552Y-118571427D01*
X114785552Y-118571427D02*
X114833171Y-118476189D01*
X114833171Y-118476189D02*
X114928409Y-118428570D01*
X114928409Y-118428570D02*
X115023647Y-118428570D01*
X115023647Y-118428570D02*
X115118885Y-118904760D01*
X115452219Y-117238093D02*
X114452219Y-117238093D01*
X114452219Y-117238093D02*
X114452219Y-116857141D01*
X114452219Y-116857141D02*
X114499838Y-116761903D01*
X114499838Y-116761903D02*
X114547457Y-116714284D01*
X114547457Y-116714284D02*
X114642695Y-116666665D01*
X114642695Y-116666665D02*
X114785552Y-116666665D01*
X114785552Y-116666665D02*
X114880790Y-116714284D01*
X114880790Y-116714284D02*
X114928409Y-116761903D01*
X114928409Y-116761903D02*
X114976028Y-116857141D01*
X114976028Y-116857141D02*
X114976028Y-117238093D01*
X115356980Y-115666665D02*
X115404600Y-115714284D01*
X115404600Y-115714284D02*
X115452219Y-115857141D01*
X115452219Y-115857141D02*
X115452219Y-115952379D01*
X115452219Y-115952379D02*
X115404600Y-116095236D01*
X115404600Y-116095236D02*
X115309361Y-116190474D01*
X115309361Y-116190474D02*
X115214123Y-116238093D01*
X115214123Y-116238093D02*
X115023647Y-116285712D01*
X115023647Y-116285712D02*
X114880790Y-116285712D01*
X114880790Y-116285712D02*
X114690314Y-116238093D01*
X114690314Y-116238093D02*
X114595076Y-116190474D01*
X114595076Y-116190474D02*
X114499838Y-116095236D01*
X114499838Y-116095236D02*
X114452219Y-115952379D01*
X114452219Y-115952379D02*
X114452219Y-115857141D01*
X114452219Y-115857141D02*
X114499838Y-115714284D01*
X114499838Y-115714284D02*
X114547457Y-115666665D01*
X114928409Y-114904760D02*
X114976028Y-114761903D01*
X114976028Y-114761903D02*
X115023647Y-114714284D01*
X115023647Y-114714284D02*
X115118885Y-114666665D01*
X115118885Y-114666665D02*
X115261742Y-114666665D01*
X115261742Y-114666665D02*
X115356980Y-114714284D01*
X115356980Y-114714284D02*
X115404600Y-114761903D01*
X115404600Y-114761903D02*
X115452219Y-114857141D01*
X115452219Y-114857141D02*
X115452219Y-115238093D01*
X115452219Y-115238093D02*
X114452219Y-115238093D01*
X114452219Y-115238093D02*
X114452219Y-114904760D01*
X114452219Y-114904760D02*
X114499838Y-114809522D01*
X114499838Y-114809522D02*
X114547457Y-114761903D01*
X114547457Y-114761903D02*
X114642695Y-114714284D01*
X114642695Y-114714284D02*
X114737933Y-114714284D01*
X114737933Y-114714284D02*
X114833171Y-114761903D01*
X114833171Y-114761903D02*
X114880790Y-114809522D01*
X114880790Y-114809522D02*
X114928409Y-114904760D01*
X114928409Y-114904760D02*
X114928409Y-115238093D01*
X114785552Y-113571426D02*
X115452219Y-113333331D01*
X115452219Y-113333331D02*
X114785552Y-113095236D01*
X115452219Y-112190474D02*
X115452219Y-112761902D01*
X115452219Y-112476188D02*
X114452219Y-112476188D01*
X114452219Y-112476188D02*
X114595076Y-112571426D01*
X114595076Y-112571426D02*
X114690314Y-112666664D01*
X114690314Y-112666664D02*
X114737933Y-112761902D01*
X115356980Y-111761902D02*
X115404600Y-111714283D01*
X115404600Y-111714283D02*
X115452219Y-111761902D01*
X115452219Y-111761902D02*
X115404600Y-111809521D01*
X115404600Y-111809521D02*
X115356980Y-111761902D01*
X115356980Y-111761902D02*
X115452219Y-111761902D01*
X114452219Y-111095236D02*
X114452219Y-110999998D01*
X114452219Y-110999998D02*
X114499838Y-110904760D01*
X114499838Y-110904760D02*
X114547457Y-110857141D01*
X114547457Y-110857141D02*
X114642695Y-110809522D01*
X114642695Y-110809522D02*
X114833171Y-110761903D01*
X114833171Y-110761903D02*
X115071266Y-110761903D01*
X115071266Y-110761903D02*
X115261742Y-110809522D01*
X115261742Y-110809522D02*
X115356980Y-110857141D01*
X115356980Y-110857141D02*
X115404600Y-110904760D01*
X115404600Y-110904760D02*
X115452219Y-110999998D01*
X115452219Y-110999998D02*
X115452219Y-111095236D01*
X115452219Y-111095236D02*
X115404600Y-111190474D01*
X115404600Y-111190474D02*
X115356980Y-111238093D01*
X115356980Y-111238093D02*
X115261742Y-111285712D01*
X115261742Y-111285712D02*
X115071266Y-111333331D01*
X115071266Y-111333331D02*
X114833171Y-111333331D01*
X114833171Y-111333331D02*
X114642695Y-111285712D01*
X114642695Y-111285712D02*
X114547457Y-111238093D01*
X114547457Y-111238093D02*
X114499838Y-111190474D01*
X114499838Y-111190474D02*
X114452219Y-111095236D01*
D15*
X120738095Y-109142533D02*
X122261905Y-109142533D01*
X120738095Y-114642533D02*
X122261905Y-114642533D01*
X121500000Y-115404438D02*
X121500000Y-113880628D01*
X130333333Y-96594914D02*
X130428571Y-96499676D01*
X130428571Y-96499676D02*
X130619047Y-96404438D01*
X130619047Y-96404438D02*
X131095238Y-96404438D01*
X131095238Y-96404438D02*
X131285714Y-96499676D01*
X131285714Y-96499676D02*
X131380952Y-96594914D01*
X131380952Y-96594914D02*
X131476190Y-96785390D01*
X131476190Y-96785390D02*
X131476190Y-96975866D01*
X131476190Y-96975866D02*
X131380952Y-97261580D01*
X131380952Y-97261580D02*
X130238095Y-98404438D01*
X130238095Y-98404438D02*
X131476190Y-98404438D01*
X133190476Y-97071104D02*
X133190476Y-98404438D01*
X132714285Y-96309200D02*
X132238095Y-97737771D01*
X132238095Y-97737771D02*
X133476190Y-97737771D01*
X133952381Y-96404438D02*
X134619047Y-98404438D01*
X134619047Y-98404438D02*
X135285714Y-96404438D01*
X137476191Y-98404438D02*
X137476191Y-96404438D01*
X138428572Y-98404438D02*
X138428572Y-96404438D01*
X138428572Y-96404438D02*
X139571429Y-98404438D01*
X139571429Y-98404438D02*
X139571429Y-96404438D01*
X152595238Y-136404438D02*
X152595238Y-134404438D01*
X152595238Y-134404438D02*
X153261905Y-135833009D01*
X153261905Y-135833009D02*
X153928571Y-134404438D01*
X153928571Y-134404438D02*
X153928571Y-136404438D01*
X154880952Y-135642533D02*
X156404762Y-135642533D01*
X152595238Y-141404438D02*
X152595238Y-139404438D01*
X152595238Y-139404438D02*
X153261905Y-140833009D01*
X153261905Y-140833009D02*
X153928571Y-139404438D01*
X153928571Y-139404438D02*
X153928571Y-141404438D01*
X154880952Y-140642533D02*
X156404762Y-140642533D01*
X155642857Y-141404438D02*
X155642857Y-139880628D01*
X157238095Y-97833009D02*
X158190476Y-97833009D01*
X157047619Y-98404438D02*
X157714285Y-96404438D01*
X157714285Y-96404438D02*
X158380952Y-98404438D01*
X160190476Y-98213961D02*
X160095238Y-98309200D01*
X160095238Y-98309200D02*
X159809524Y-98404438D01*
X159809524Y-98404438D02*
X159619048Y-98404438D01*
X159619048Y-98404438D02*
X159333333Y-98309200D01*
X159333333Y-98309200D02*
X159142857Y-98118723D01*
X159142857Y-98118723D02*
X159047619Y-97928247D01*
X159047619Y-97928247D02*
X158952381Y-97547295D01*
X158952381Y-97547295D02*
X158952381Y-97261580D01*
X158952381Y-97261580D02*
X159047619Y-96880628D01*
X159047619Y-96880628D02*
X159142857Y-96690152D01*
X159142857Y-96690152D02*
X159333333Y-96499676D01*
X159333333Y-96499676D02*
X159619048Y-96404438D01*
X159619048Y-96404438D02*
X159809524Y-96404438D01*
X159809524Y-96404438D02*
X160095238Y-96499676D01*
X160095238Y-96499676D02*
X160190476Y-96594914D01*
X162571429Y-98404438D02*
X162571429Y-96404438D01*
X163523810Y-98404438D02*
X163523810Y-96404438D01*
X163523810Y-96404438D02*
X164666667Y-98404438D01*
X164666667Y-98404438D02*
X164666667Y-96404438D01*
X165738095Y-135642533D02*
X167261905Y-135642533D01*
X165738095Y-140642533D02*
X167261905Y-140642533D01*
X166500000Y-141404438D02*
X166500000Y-139880628D01*
X169523809Y-135833009D02*
X170476190Y-135833009D01*
X169333333Y-136404438D02*
X169999999Y-134404438D01*
X169999999Y-134404438D02*
X170666666Y-136404438D01*
X169428571Y-141404438D02*
X169428571Y-139404438D01*
X169428571Y-139404438D02*
X170571428Y-141404438D01*
X170571428Y-141404438D02*
X170571428Y-139404438D01*
X172928571Y-109904438D02*
X172928571Y-107904438D01*
X172928571Y-107904438D02*
X174071428Y-109904438D01*
X174071428Y-109904438D02*
X174071428Y-107904438D01*
X173023809Y-114833009D02*
X173976190Y-114833009D01*
X172833333Y-115404438D02*
X173499999Y-113404438D01*
X173499999Y-113404438D02*
X174166666Y-115404438D01*
X148794494Y-151928571D02*
X148794494Y-150785714D01*
X150794494Y-151357143D02*
X148794494Y-151357143D01*
X150699256Y-149357142D02*
X150794494Y-149547618D01*
X150794494Y-149547618D02*
X150794494Y-149928571D01*
X150794494Y-149928571D02*
X150699256Y-150119047D01*
X150699256Y-150119047D02*
X150508779Y-150214285D01*
X150508779Y-150214285D02*
X149746875Y-150214285D01*
X149746875Y-150214285D02*
X149556398Y-150119047D01*
X149556398Y-150119047D02*
X149461160Y-149928571D01*
X149461160Y-149928571D02*
X149461160Y-149547618D01*
X149461160Y-149547618D02*
X149556398Y-149357142D01*
X149556398Y-149357142D02*
X149746875Y-149261904D01*
X149746875Y-149261904D02*
X149937351Y-149261904D01*
X149937351Y-149261904D02*
X150127827Y-150214285D01*
X150794494Y-148404761D02*
X149461160Y-148404761D01*
X149651636Y-148404761D02*
X149556398Y-148309523D01*
X149556398Y-148309523D02*
X149461160Y-148119047D01*
X149461160Y-148119047D02*
X149461160Y-147833332D01*
X149461160Y-147833332D02*
X149556398Y-147642856D01*
X149556398Y-147642856D02*
X149746875Y-147547618D01*
X149746875Y-147547618D02*
X150794494Y-147547618D01*
X149746875Y-147547618D02*
X149556398Y-147452380D01*
X149556398Y-147452380D02*
X149461160Y-147261904D01*
X149461160Y-147261904D02*
X149461160Y-146976190D01*
X149461160Y-146976190D02*
X149556398Y-146785713D01*
X149556398Y-146785713D02*
X149746875Y-146690475D01*
X149746875Y-146690475D02*
X150794494Y-146690475D01*
X149461160Y-145738094D02*
X151461160Y-145738094D01*
X149556398Y-145738094D02*
X149461160Y-145547618D01*
X149461160Y-145547618D02*
X149461160Y-145166665D01*
X149461160Y-145166665D02*
X149556398Y-144976189D01*
X149556398Y-144976189D02*
X149651636Y-144880951D01*
X149651636Y-144880951D02*
X149842113Y-144785713D01*
X149842113Y-144785713D02*
X150413541Y-144785713D01*
X150413541Y-144785713D02*
X150604017Y-144880951D01*
X150604017Y-144880951D02*
X150699256Y-144976189D01*
X150699256Y-144976189D02*
X150794494Y-145166665D01*
X150794494Y-145166665D02*
X150794494Y-145547618D01*
X150794494Y-145547618D02*
X150699256Y-145738094D01*
X153919144Y-152166666D02*
X154014382Y-151880952D01*
X154014382Y-151880952D02*
X154014382Y-151404761D01*
X154014382Y-151404761D02*
X153919144Y-151214285D01*
X153919144Y-151214285D02*
X153823905Y-151119047D01*
X153823905Y-151119047D02*
X153633429Y-151023809D01*
X153633429Y-151023809D02*
X153442953Y-151023809D01*
X153442953Y-151023809D02*
X153252477Y-151119047D01*
X153252477Y-151119047D02*
X153157239Y-151214285D01*
X153157239Y-151214285D02*
X153062001Y-151404761D01*
X153062001Y-151404761D02*
X152966763Y-151785714D01*
X152966763Y-151785714D02*
X152871524Y-151976190D01*
X152871524Y-151976190D02*
X152776286Y-152071428D01*
X152776286Y-152071428D02*
X152585810Y-152166666D01*
X152585810Y-152166666D02*
X152395334Y-152166666D01*
X152395334Y-152166666D02*
X152204858Y-152071428D01*
X152204858Y-152071428D02*
X152109620Y-151976190D01*
X152109620Y-151976190D02*
X152014382Y-151785714D01*
X152014382Y-151785714D02*
X152014382Y-151309523D01*
X152014382Y-151309523D02*
X152109620Y-151023809D01*
X153919144Y-149404761D02*
X154014382Y-149595237D01*
X154014382Y-149595237D02*
X154014382Y-149976190D01*
X154014382Y-149976190D02*
X153919144Y-150166666D01*
X153919144Y-150166666D02*
X153728667Y-150261904D01*
X153728667Y-150261904D02*
X152966763Y-150261904D01*
X152966763Y-150261904D02*
X152776286Y-150166666D01*
X152776286Y-150166666D02*
X152681048Y-149976190D01*
X152681048Y-149976190D02*
X152681048Y-149595237D01*
X152681048Y-149595237D02*
X152776286Y-149404761D01*
X152776286Y-149404761D02*
X152966763Y-149309523D01*
X152966763Y-149309523D02*
X153157239Y-149309523D01*
X153157239Y-149309523D02*
X153347715Y-150261904D01*
X152681048Y-148452380D02*
X154014382Y-148452380D01*
X152871524Y-148452380D02*
X152776286Y-148357142D01*
X152776286Y-148357142D02*
X152681048Y-148166666D01*
X152681048Y-148166666D02*
X152681048Y-147880951D01*
X152681048Y-147880951D02*
X152776286Y-147690475D01*
X152776286Y-147690475D02*
X152966763Y-147595237D01*
X152966763Y-147595237D02*
X154014382Y-147595237D01*
X153919144Y-146738094D02*
X154014382Y-146547618D01*
X154014382Y-146547618D02*
X154014382Y-146166666D01*
X154014382Y-146166666D02*
X153919144Y-145976189D01*
X153919144Y-145976189D02*
X153728667Y-145880951D01*
X153728667Y-145880951D02*
X153633429Y-145880951D01*
X153633429Y-145880951D02*
X153442953Y-145976189D01*
X153442953Y-145976189D02*
X153347715Y-146166666D01*
X153347715Y-146166666D02*
X153347715Y-146452380D01*
X153347715Y-146452380D02*
X153252477Y-146642856D01*
X153252477Y-146642856D02*
X153062001Y-146738094D01*
X153062001Y-146738094D02*
X152966763Y-146738094D01*
X152966763Y-146738094D02*
X152776286Y-146642856D01*
X152776286Y-146642856D02*
X152681048Y-146452380D01*
X152681048Y-146452380D02*
X152681048Y-146166666D01*
X152681048Y-146166666D02*
X152776286Y-145976189D01*
X154014382Y-144738094D02*
X153919144Y-144928570D01*
X153919144Y-144928570D02*
X153823905Y-145023808D01*
X153823905Y-145023808D02*
X153633429Y-145119046D01*
X153633429Y-145119046D02*
X153062001Y-145119046D01*
X153062001Y-145119046D02*
X152871524Y-145023808D01*
X152871524Y-145023808D02*
X152776286Y-144928570D01*
X152776286Y-144928570D02*
X152681048Y-144738094D01*
X152681048Y-144738094D02*
X152681048Y-144452379D01*
X152681048Y-144452379D02*
X152776286Y-144261903D01*
X152776286Y-144261903D02*
X152871524Y-144166665D01*
X152871524Y-144166665D02*
X153062001Y-144071427D01*
X153062001Y-144071427D02*
X153633429Y-144071427D01*
X153633429Y-144071427D02*
X153823905Y-144166665D01*
X153823905Y-144166665D02*
X153919144Y-144261903D01*
X153919144Y-144261903D02*
X154014382Y-144452379D01*
X154014382Y-144452379D02*
X154014382Y-144738094D01*
X154014382Y-143214284D02*
X152681048Y-143214284D01*
X153062001Y-143214284D02*
X152871524Y-143119046D01*
X152871524Y-143119046D02*
X152776286Y-143023808D01*
X152776286Y-143023808D02*
X152681048Y-142833332D01*
X152681048Y-142833332D02*
X152681048Y-142642855D01*
X181904438Y-144380952D02*
X179904438Y-144380952D01*
X180856819Y-144380952D02*
X180856819Y-143238095D01*
X181904438Y-143238095D02*
X179904438Y-143238095D01*
X181809200Y-141523809D02*
X181904438Y-141714285D01*
X181904438Y-141714285D02*
X181904438Y-142095238D01*
X181904438Y-142095238D02*
X181809200Y-142285714D01*
X181809200Y-142285714D02*
X181618723Y-142380952D01*
X181618723Y-142380952D02*
X180856819Y-142380952D01*
X180856819Y-142380952D02*
X180666342Y-142285714D01*
X180666342Y-142285714D02*
X180571104Y-142095238D01*
X180571104Y-142095238D02*
X180571104Y-141714285D01*
X180571104Y-141714285D02*
X180666342Y-141523809D01*
X180666342Y-141523809D02*
X180856819Y-141428571D01*
X180856819Y-141428571D02*
X181047295Y-141428571D01*
X181047295Y-141428571D02*
X181237771Y-142380952D01*
X181904438Y-139714285D02*
X180856819Y-139714285D01*
X180856819Y-139714285D02*
X180666342Y-139809523D01*
X180666342Y-139809523D02*
X180571104Y-139999999D01*
X180571104Y-139999999D02*
X180571104Y-140380952D01*
X180571104Y-140380952D02*
X180666342Y-140571428D01*
X181809200Y-139714285D02*
X181904438Y-139904761D01*
X181904438Y-139904761D02*
X181904438Y-140380952D01*
X181904438Y-140380952D02*
X181809200Y-140571428D01*
X181809200Y-140571428D02*
X181618723Y-140666666D01*
X181618723Y-140666666D02*
X181428247Y-140666666D01*
X181428247Y-140666666D02*
X181237771Y-140571428D01*
X181237771Y-140571428D02*
X181142533Y-140380952D01*
X181142533Y-140380952D02*
X181142533Y-139904761D01*
X181142533Y-139904761D02*
X181047295Y-139714285D01*
X180571104Y-139047618D02*
X180571104Y-138285714D01*
X179904438Y-138761904D02*
X181618723Y-138761904D01*
X181618723Y-138761904D02*
X181809200Y-138666666D01*
X181809200Y-138666666D02*
X181904438Y-138476190D01*
X181904438Y-138476190D02*
X181904438Y-138285714D01*
X181809200Y-136857142D02*
X181904438Y-137047618D01*
X181904438Y-137047618D02*
X181904438Y-137428571D01*
X181904438Y-137428571D02*
X181809200Y-137619047D01*
X181809200Y-137619047D02*
X181618723Y-137714285D01*
X181618723Y-137714285D02*
X180856819Y-137714285D01*
X180856819Y-137714285D02*
X180666342Y-137619047D01*
X180666342Y-137619047D02*
X180571104Y-137428571D01*
X180571104Y-137428571D02*
X180571104Y-137047618D01*
X180571104Y-137047618D02*
X180666342Y-136857142D01*
X180666342Y-136857142D02*
X180856819Y-136761904D01*
X180856819Y-136761904D02*
X181047295Y-136761904D01*
X181047295Y-136761904D02*
X181237771Y-137714285D01*
X181904438Y-135904761D02*
X180571104Y-135904761D01*
X180952057Y-135904761D02*
X180761580Y-135809523D01*
X180761580Y-135809523D02*
X180666342Y-135714285D01*
X180666342Y-135714285D02*
X180571104Y-135523809D01*
X180571104Y-135523809D02*
X180571104Y-135333332D01*
D16*
X139761905Y-107165919D02*
X139761905Y-106165919D01*
X139761905Y-106165919D02*
X140000000Y-106165919D01*
X140000000Y-106165919D02*
X140142857Y-106213538D01*
X140142857Y-106213538D02*
X140238095Y-106308776D01*
X140238095Y-106308776D02*
X140285714Y-106404014D01*
X140285714Y-106404014D02*
X140333333Y-106594490D01*
X140333333Y-106594490D02*
X140333333Y-106737347D01*
X140333333Y-106737347D02*
X140285714Y-106927823D01*
X140285714Y-106927823D02*
X140238095Y-107023061D01*
X140238095Y-107023061D02*
X140142857Y-107118300D01*
X140142857Y-107118300D02*
X140000000Y-107165919D01*
X140000000Y-107165919D02*
X139761905Y-107165919D01*
X140714286Y-106261157D02*
X140761905Y-106213538D01*
X140761905Y-106213538D02*
X140857143Y-106165919D01*
X140857143Y-106165919D02*
X141095238Y-106165919D01*
X141095238Y-106165919D02*
X141190476Y-106213538D01*
X141190476Y-106213538D02*
X141238095Y-106261157D01*
X141238095Y-106261157D02*
X141285714Y-106356395D01*
X141285714Y-106356395D02*
X141285714Y-106451633D01*
X141285714Y-106451633D02*
X141238095Y-106594490D01*
X141238095Y-106594490D02*
X140666667Y-107165919D01*
X140666667Y-107165919D02*
X141285714Y-107165919D01*
D17*
X137317776Y-110515796D02*
X137571776Y-111277796D01*
X137571776Y-111277796D02*
X137825776Y-110515796D01*
X138079776Y-111277796D02*
X138079776Y-110769796D01*
X138079776Y-110515796D02*
X138043490Y-110552082D01*
X138043490Y-110552082D02*
X138079776Y-110588368D01*
X138079776Y-110588368D02*
X138116062Y-110552082D01*
X138116062Y-110552082D02*
X138079776Y-110515796D01*
X138079776Y-110515796D02*
X138079776Y-110588368D01*
X138442633Y-110769796D02*
X138442633Y-111277796D01*
X138442633Y-110842368D02*
X138478919Y-110806082D01*
X138478919Y-110806082D02*
X138551490Y-110769796D01*
X138551490Y-110769796D02*
X138660347Y-110769796D01*
X138660347Y-110769796D02*
X138732919Y-110806082D01*
X138732919Y-110806082D02*
X138769205Y-110878653D01*
X138769205Y-110878653D02*
X138769205Y-111277796D01*
X140224756Y-110552082D02*
X140152185Y-110515796D01*
X140152185Y-110515796D02*
X140043327Y-110515796D01*
X140043327Y-110515796D02*
X139934470Y-110552082D01*
X139934470Y-110552082D02*
X139861899Y-110624653D01*
X139861899Y-110624653D02*
X139825613Y-110697225D01*
X139825613Y-110697225D02*
X139789327Y-110842368D01*
X139789327Y-110842368D02*
X139789327Y-110951225D01*
X139789327Y-110951225D02*
X139825613Y-111096368D01*
X139825613Y-111096368D02*
X139861899Y-111168939D01*
X139861899Y-111168939D02*
X139934470Y-111241511D01*
X139934470Y-111241511D02*
X140043327Y-111277796D01*
X140043327Y-111277796D02*
X140115899Y-111277796D01*
X140115899Y-111277796D02*
X140224756Y-111241511D01*
X140224756Y-111241511D02*
X140261042Y-111205225D01*
X140261042Y-111205225D02*
X140261042Y-110951225D01*
X140261042Y-110951225D02*
X140115899Y-110951225D01*
X140587613Y-111277796D02*
X140587613Y-110515796D01*
X140587613Y-110515796D02*
X141023042Y-111277796D01*
X141023042Y-111277796D02*
X141023042Y-110515796D01*
X141385899Y-111277796D02*
X141385899Y-110515796D01*
X141385899Y-110515796D02*
X141567328Y-110515796D01*
X141567328Y-110515796D02*
X141676185Y-110552082D01*
X141676185Y-110552082D02*
X141748756Y-110624653D01*
X141748756Y-110624653D02*
X141785042Y-110697225D01*
X141785042Y-110697225D02*
X141821328Y-110842368D01*
X141821328Y-110842368D02*
X141821328Y-110951225D01*
X141821328Y-110951225D02*
X141785042Y-111096368D01*
X141785042Y-111096368D02*
X141748756Y-111168939D01*
X141748756Y-111168939D02*
X141676185Y-111241511D01*
X141676185Y-111241511D02*
X141567328Y-111277796D01*
X141567328Y-111277796D02*
X141385899Y-111277796D01*
X142384533Y-110987511D02*
X142965105Y-110987511D01*
X142674819Y-111277796D02*
X142674819Y-110697225D01*
X143219105Y-110515796D02*
X143473105Y-111277796D01*
X143473105Y-111277796D02*
X143727105Y-110515796D01*
X144089962Y-111277796D02*
X144017391Y-111241511D01*
X144017391Y-111241511D02*
X143981105Y-111205225D01*
X143981105Y-111205225D02*
X143944819Y-111132653D01*
X143944819Y-111132653D02*
X143944819Y-110914939D01*
X143944819Y-110914939D02*
X143981105Y-110842368D01*
X143981105Y-110842368D02*
X144017391Y-110806082D01*
X144017391Y-110806082D02*
X144089962Y-110769796D01*
X144089962Y-110769796D02*
X144198819Y-110769796D01*
X144198819Y-110769796D02*
X144271391Y-110806082D01*
X144271391Y-110806082D02*
X144307677Y-110842368D01*
X144307677Y-110842368D02*
X144343962Y-110914939D01*
X144343962Y-110914939D02*
X144343962Y-111132653D01*
X144343962Y-111132653D02*
X144307677Y-111205225D01*
X144307677Y-111205225D02*
X144271391Y-111241511D01*
X144271391Y-111241511D02*
X144198819Y-111277796D01*
X144198819Y-111277796D02*
X144089962Y-111277796D01*
D16*
X132859580Y-144666666D02*
X132907200Y-144714285D01*
X132907200Y-144714285D02*
X132954819Y-144857142D01*
X132954819Y-144857142D02*
X132954819Y-144952380D01*
X132954819Y-144952380D02*
X132907200Y-145095237D01*
X132907200Y-145095237D02*
X132811961Y-145190475D01*
X132811961Y-145190475D02*
X132716723Y-145238094D01*
X132716723Y-145238094D02*
X132526247Y-145285713D01*
X132526247Y-145285713D02*
X132383390Y-145285713D01*
X132383390Y-145285713D02*
X132192914Y-145238094D01*
X132192914Y-145238094D02*
X132097676Y-145190475D01*
X132097676Y-145190475D02*
X132002438Y-145095237D01*
X132002438Y-145095237D02*
X131954819Y-144952380D01*
X131954819Y-144952380D02*
X131954819Y-144857142D01*
X131954819Y-144857142D02*
X132002438Y-144714285D01*
X132002438Y-144714285D02*
X132050057Y-144666666D01*
X131954819Y-143809523D02*
X131954819Y-143999999D01*
X131954819Y-143999999D02*
X132002438Y-144095237D01*
X132002438Y-144095237D02*
X132050057Y-144142856D01*
X132050057Y-144142856D02*
X132192914Y-144238094D01*
X132192914Y-144238094D02*
X132383390Y-144285713D01*
X132383390Y-144285713D02*
X132764342Y-144285713D01*
X132764342Y-144285713D02*
X132859580Y-144238094D01*
X132859580Y-144238094D02*
X132907200Y-144190475D01*
X132907200Y-144190475D02*
X132954819Y-144095237D01*
X132954819Y-144095237D02*
X132954819Y-143904761D01*
X132954819Y-143904761D02*
X132907200Y-143809523D01*
X132907200Y-143809523D02*
X132859580Y-143761904D01*
X132859580Y-143761904D02*
X132764342Y-143714285D01*
X132764342Y-143714285D02*
X132526247Y-143714285D01*
X132526247Y-143714285D02*
X132431009Y-143761904D01*
X132431009Y-143761904D02*
X132383390Y-143809523D01*
X132383390Y-143809523D02*
X132335771Y-143904761D01*
X132335771Y-143904761D02*
X132335771Y-144095237D01*
X132335771Y-144095237D02*
X132383390Y-144190475D01*
X132383390Y-144190475D02*
X132431009Y-144238094D01*
X132431009Y-144238094D02*
X132526247Y-144285713D01*
X125174819Y-125738094D02*
X124174819Y-125738094D01*
X124174819Y-125738094D02*
X124174819Y-125499999D01*
X124174819Y-125499999D02*
X124222438Y-125357142D01*
X124222438Y-125357142D02*
X124317676Y-125261904D01*
X124317676Y-125261904D02*
X124412914Y-125214285D01*
X124412914Y-125214285D02*
X124603390Y-125166666D01*
X124603390Y-125166666D02*
X124746247Y-125166666D01*
X124746247Y-125166666D02*
X124936723Y-125214285D01*
X124936723Y-125214285D02*
X125031961Y-125261904D01*
X125031961Y-125261904D02*
X125127200Y-125357142D01*
X125127200Y-125357142D02*
X125174819Y-125499999D01*
X125174819Y-125499999D02*
X125174819Y-125738094D01*
X125174819Y-124214285D02*
X125174819Y-124785713D01*
X125174819Y-124499999D02*
X124174819Y-124499999D01*
X124174819Y-124499999D02*
X124317676Y-124595237D01*
X124317676Y-124595237D02*
X124412914Y-124690475D01*
X124412914Y-124690475D02*
X124460533Y-124785713D01*
D18*
X116615338Y-137244688D02*
X116192004Y-136639926D01*
X115889623Y-137244688D02*
X115889623Y-135974688D01*
X115889623Y-135974688D02*
X116373433Y-135974688D01*
X116373433Y-135974688D02*
X116494385Y-136035164D01*
X116494385Y-136035164D02*
X116554862Y-136095640D01*
X116554862Y-136095640D02*
X116615338Y-136216592D01*
X116615338Y-136216592D02*
X116615338Y-136398021D01*
X116615338Y-136398021D02*
X116554862Y-136518973D01*
X116554862Y-136518973D02*
X116494385Y-136579450D01*
X116494385Y-136579450D02*
X116373433Y-136639926D01*
X116373433Y-136639926D02*
X115889623Y-136639926D01*
X116978195Y-135974688D02*
X117401528Y-137244688D01*
X117401528Y-137244688D02*
X117824862Y-135974688D01*
X118913433Y-137244688D02*
X118187718Y-137244688D01*
X118550575Y-137244688D02*
X118550575Y-135974688D01*
X118550575Y-135974688D02*
X118429623Y-136156116D01*
X118429623Y-136156116D02*
X118308671Y-136277069D01*
X118308671Y-136277069D02*
X118187718Y-136337545D01*
D16*
X160285714Y-108954819D02*
X160285714Y-107954819D01*
X160285714Y-107954819D02*
X160523809Y-107954819D01*
X160523809Y-107954819D02*
X160666666Y-108002438D01*
X160666666Y-108002438D02*
X160761904Y-108097676D01*
X160761904Y-108097676D02*
X160809523Y-108192914D01*
X160809523Y-108192914D02*
X160857142Y-108383390D01*
X160857142Y-108383390D02*
X160857142Y-108526247D01*
X160857142Y-108526247D02*
X160809523Y-108716723D01*
X160809523Y-108716723D02*
X160761904Y-108811961D01*
X160761904Y-108811961D02*
X160666666Y-108907200D01*
X160666666Y-108907200D02*
X160523809Y-108954819D01*
X160523809Y-108954819D02*
X160285714Y-108954819D01*
X161238095Y-108050057D02*
X161285714Y-108002438D01*
X161285714Y-108002438D02*
X161380952Y-107954819D01*
X161380952Y-107954819D02*
X161619047Y-107954819D01*
X161619047Y-107954819D02*
X161714285Y-108002438D01*
X161714285Y-108002438D02*
X161761904Y-108050057D01*
X161761904Y-108050057D02*
X161809523Y-108145295D01*
X161809523Y-108145295D02*
X161809523Y-108240533D01*
X161809523Y-108240533D02*
X161761904Y-108383390D01*
X161761904Y-108383390D02*
X161190476Y-108954819D01*
X161190476Y-108954819D02*
X161809523Y-108954819D01*
X162380952Y-108383390D02*
X162285714Y-108335771D01*
X162285714Y-108335771D02*
X162238095Y-108288152D01*
X162238095Y-108288152D02*
X162190476Y-108192914D01*
X162190476Y-108192914D02*
X162190476Y-108145295D01*
X162190476Y-108145295D02*
X162238095Y-108050057D01*
X162238095Y-108050057D02*
X162285714Y-108002438D01*
X162285714Y-108002438D02*
X162380952Y-107954819D01*
X162380952Y-107954819D02*
X162571428Y-107954819D01*
X162571428Y-107954819D02*
X162666666Y-108002438D01*
X162666666Y-108002438D02*
X162714285Y-108050057D01*
X162714285Y-108050057D02*
X162761904Y-108145295D01*
X162761904Y-108145295D02*
X162761904Y-108192914D01*
X162761904Y-108192914D02*
X162714285Y-108288152D01*
X162714285Y-108288152D02*
X162666666Y-108335771D01*
X162666666Y-108335771D02*
X162571428Y-108383390D01*
X162571428Y-108383390D02*
X162380952Y-108383390D01*
X162380952Y-108383390D02*
X162285714Y-108431009D01*
X162285714Y-108431009D02*
X162238095Y-108478628D01*
X162238095Y-108478628D02*
X162190476Y-108573866D01*
X162190476Y-108573866D02*
X162190476Y-108764342D01*
X162190476Y-108764342D02*
X162238095Y-108859580D01*
X162238095Y-108859580D02*
X162285714Y-108907200D01*
X162285714Y-108907200D02*
X162380952Y-108954819D01*
X162380952Y-108954819D02*
X162571428Y-108954819D01*
X162571428Y-108954819D02*
X162666666Y-108907200D01*
X162666666Y-108907200D02*
X162714285Y-108859580D01*
X162714285Y-108859580D02*
X162761904Y-108764342D01*
X162761904Y-108764342D02*
X162761904Y-108573866D01*
X162761904Y-108573866D02*
X162714285Y-108478628D01*
X162714285Y-108478628D02*
X162666666Y-108431009D01*
X162666666Y-108431009D02*
X162571428Y-108383390D01*
X129238095Y-132554819D02*
X129238095Y-133364342D01*
X129238095Y-133364342D02*
X129285714Y-133459580D01*
X129285714Y-133459580D02*
X129333333Y-133507200D01*
X129333333Y-133507200D02*
X129428571Y-133554819D01*
X129428571Y-133554819D02*
X129619047Y-133554819D01*
X129619047Y-133554819D02*
X129714285Y-133507200D01*
X129714285Y-133507200D02*
X129761904Y-133459580D01*
X129761904Y-133459580D02*
X129809523Y-133364342D01*
X129809523Y-133364342D02*
X129809523Y-132554819D01*
X130238095Y-132650057D02*
X130285714Y-132602438D01*
X130285714Y-132602438D02*
X130380952Y-132554819D01*
X130380952Y-132554819D02*
X130619047Y-132554819D01*
X130619047Y-132554819D02*
X130714285Y-132602438D01*
X130714285Y-132602438D02*
X130761904Y-132650057D01*
X130761904Y-132650057D02*
X130809523Y-132745295D01*
X130809523Y-132745295D02*
X130809523Y-132840533D01*
X130809523Y-132840533D02*
X130761904Y-132983390D01*
X130761904Y-132983390D02*
X130190476Y-133554819D01*
X130190476Y-133554819D02*
X130809523Y-133554819D01*
X147857142Y-114859580D02*
X147809523Y-114907200D01*
X147809523Y-114907200D02*
X147666666Y-114954819D01*
X147666666Y-114954819D02*
X147571428Y-114954819D01*
X147571428Y-114954819D02*
X147428571Y-114907200D01*
X147428571Y-114907200D02*
X147333333Y-114811961D01*
X147333333Y-114811961D02*
X147285714Y-114716723D01*
X147285714Y-114716723D02*
X147238095Y-114526247D01*
X147238095Y-114526247D02*
X147238095Y-114383390D01*
X147238095Y-114383390D02*
X147285714Y-114192914D01*
X147285714Y-114192914D02*
X147333333Y-114097676D01*
X147333333Y-114097676D02*
X147428571Y-114002438D01*
X147428571Y-114002438D02*
X147571428Y-113954819D01*
X147571428Y-113954819D02*
X147666666Y-113954819D01*
X147666666Y-113954819D02*
X147809523Y-114002438D01*
X147809523Y-114002438D02*
X147857142Y-114050057D01*
X148761904Y-113954819D02*
X148285714Y-113954819D01*
X148285714Y-113954819D02*
X148238095Y-114431009D01*
X148238095Y-114431009D02*
X148285714Y-114383390D01*
X148285714Y-114383390D02*
X148380952Y-114335771D01*
X148380952Y-114335771D02*
X148619047Y-114335771D01*
X148619047Y-114335771D02*
X148714285Y-114383390D01*
X148714285Y-114383390D02*
X148761904Y-114431009D01*
X148761904Y-114431009D02*
X148809523Y-114526247D01*
X148809523Y-114526247D02*
X148809523Y-114764342D01*
X148809523Y-114764342D02*
X148761904Y-114859580D01*
X148761904Y-114859580D02*
X148714285Y-114907200D01*
X148714285Y-114907200D02*
X148619047Y-114954819D01*
X148619047Y-114954819D02*
X148380952Y-114954819D01*
X148380952Y-114954819D02*
X148285714Y-114907200D01*
X148285714Y-114907200D02*
X148238095Y-114859580D01*
X149142857Y-113954819D02*
X149761904Y-113954819D01*
X149761904Y-113954819D02*
X149428571Y-114335771D01*
X149428571Y-114335771D02*
X149571428Y-114335771D01*
X149571428Y-114335771D02*
X149666666Y-114383390D01*
X149666666Y-114383390D02*
X149714285Y-114431009D01*
X149714285Y-114431009D02*
X149761904Y-114526247D01*
X149761904Y-114526247D02*
X149761904Y-114764342D01*
X149761904Y-114764342D02*
X149714285Y-114859580D01*
X149714285Y-114859580D02*
X149666666Y-114907200D01*
X149666666Y-114907200D02*
X149571428Y-114954819D01*
X149571428Y-114954819D02*
X149285714Y-114954819D01*
X149285714Y-114954819D02*
X149190476Y-114907200D01*
X149190476Y-114907200D02*
X149142857Y-114859580D01*
X153738095Y-115454819D02*
X153738095Y-116264342D01*
X153738095Y-116264342D02*
X153785714Y-116359580D01*
X153785714Y-116359580D02*
X153833333Y-116407200D01*
X153833333Y-116407200D02*
X153928571Y-116454819D01*
X153928571Y-116454819D02*
X154119047Y-116454819D01*
X154119047Y-116454819D02*
X154214285Y-116407200D01*
X154214285Y-116407200D02*
X154261904Y-116359580D01*
X154261904Y-116359580D02*
X154309523Y-116264342D01*
X154309523Y-116264342D02*
X154309523Y-115454819D01*
X155261904Y-115454819D02*
X154785714Y-115454819D01*
X154785714Y-115454819D02*
X154738095Y-115931009D01*
X154738095Y-115931009D02*
X154785714Y-115883390D01*
X154785714Y-115883390D02*
X154880952Y-115835771D01*
X154880952Y-115835771D02*
X155119047Y-115835771D01*
X155119047Y-115835771D02*
X155214285Y-115883390D01*
X155214285Y-115883390D02*
X155261904Y-115931009D01*
X155261904Y-115931009D02*
X155309523Y-116026247D01*
X155309523Y-116026247D02*
X155309523Y-116264342D01*
X155309523Y-116264342D02*
X155261904Y-116359580D01*
X155261904Y-116359580D02*
X155214285Y-116407200D01*
X155214285Y-116407200D02*
X155119047Y-116454819D01*
X155119047Y-116454819D02*
X154880952Y-116454819D01*
X154880952Y-116454819D02*
X154785714Y-116407200D01*
X154785714Y-116407200D02*
X154738095Y-116359580D01*
X122333333Y-140604819D02*
X122000000Y-140128628D01*
X121761905Y-140604819D02*
X121761905Y-139604819D01*
X121761905Y-139604819D02*
X122142857Y-139604819D01*
X122142857Y-139604819D02*
X122238095Y-139652438D01*
X122238095Y-139652438D02*
X122285714Y-139700057D01*
X122285714Y-139700057D02*
X122333333Y-139795295D01*
X122333333Y-139795295D02*
X122333333Y-139938152D01*
X122333333Y-139938152D02*
X122285714Y-140033390D01*
X122285714Y-140033390D02*
X122238095Y-140081009D01*
X122238095Y-140081009D02*
X122142857Y-140128628D01*
X122142857Y-140128628D02*
X121761905Y-140128628D01*
X123190476Y-139604819D02*
X123000000Y-139604819D01*
X123000000Y-139604819D02*
X122904762Y-139652438D01*
X122904762Y-139652438D02*
X122857143Y-139700057D01*
X122857143Y-139700057D02*
X122761905Y-139842914D01*
X122761905Y-139842914D02*
X122714286Y-140033390D01*
X122714286Y-140033390D02*
X122714286Y-140414342D01*
X122714286Y-140414342D02*
X122761905Y-140509580D01*
X122761905Y-140509580D02*
X122809524Y-140557200D01*
X122809524Y-140557200D02*
X122904762Y-140604819D01*
X122904762Y-140604819D02*
X123095238Y-140604819D01*
X123095238Y-140604819D02*
X123190476Y-140557200D01*
X123190476Y-140557200D02*
X123238095Y-140509580D01*
X123238095Y-140509580D02*
X123285714Y-140414342D01*
X123285714Y-140414342D02*
X123285714Y-140176247D01*
X123285714Y-140176247D02*
X123238095Y-140081009D01*
X123238095Y-140081009D02*
X123190476Y-140033390D01*
X123190476Y-140033390D02*
X123095238Y-139985771D01*
X123095238Y-139985771D02*
X122904762Y-139985771D01*
X122904762Y-139985771D02*
X122809524Y-140033390D01*
X122809524Y-140033390D02*
X122761905Y-140081009D01*
X122761905Y-140081009D02*
X122714286Y-140176247D01*
X121954819Y-143785713D02*
X121954819Y-143214285D01*
X122954819Y-143499999D02*
X121954819Y-143499999D01*
X122954819Y-142880951D02*
X121954819Y-142880951D01*
X122431009Y-142880951D02*
X122431009Y-142309523D01*
X122954819Y-142309523D02*
X121954819Y-142309523D01*
X122954819Y-141309523D02*
X122954819Y-141880951D01*
X122954819Y-141595237D02*
X121954819Y-141595237D01*
X121954819Y-141595237D02*
X122097676Y-141690475D01*
X122097676Y-141690475D02*
X122192914Y-141785713D01*
X122192914Y-141785713D02*
X122240533Y-141880951D01*
D18*
X141115338Y-137244688D02*
X140692004Y-136639926D01*
X140389623Y-137244688D02*
X140389623Y-135974688D01*
X140389623Y-135974688D02*
X140873433Y-135974688D01*
X140873433Y-135974688D02*
X140994385Y-136035164D01*
X140994385Y-136035164D02*
X141054862Y-136095640D01*
X141054862Y-136095640D02*
X141115338Y-136216592D01*
X141115338Y-136216592D02*
X141115338Y-136398021D01*
X141115338Y-136398021D02*
X141054862Y-136518973D01*
X141054862Y-136518973D02*
X140994385Y-136579450D01*
X140994385Y-136579450D02*
X140873433Y-136639926D01*
X140873433Y-136639926D02*
X140389623Y-136639926D01*
X141478195Y-135974688D02*
X141901528Y-137244688D01*
X141901528Y-137244688D02*
X142324862Y-135974688D01*
X142687718Y-136095640D02*
X142748194Y-136035164D01*
X142748194Y-136035164D02*
X142869147Y-135974688D01*
X142869147Y-135974688D02*
X143171528Y-135974688D01*
X143171528Y-135974688D02*
X143292480Y-136035164D01*
X143292480Y-136035164D02*
X143352956Y-136095640D01*
X143352956Y-136095640D02*
X143413433Y-136216592D01*
X143413433Y-136216592D02*
X143413433Y-136337545D01*
X143413433Y-136337545D02*
X143352956Y-136518973D01*
X143352956Y-136518973D02*
X142627242Y-137244688D01*
X142627242Y-137244688D02*
X143413433Y-137244688D01*
D16*
X122857142Y-130454819D02*
X122523809Y-129978628D01*
X122285714Y-130454819D02*
X122285714Y-129454819D01*
X122285714Y-129454819D02*
X122666666Y-129454819D01*
X122666666Y-129454819D02*
X122761904Y-129502438D01*
X122761904Y-129502438D02*
X122809523Y-129550057D01*
X122809523Y-129550057D02*
X122857142Y-129645295D01*
X122857142Y-129645295D02*
X122857142Y-129788152D01*
X122857142Y-129788152D02*
X122809523Y-129883390D01*
X122809523Y-129883390D02*
X122761904Y-129931009D01*
X122761904Y-129931009D02*
X122666666Y-129978628D01*
X122666666Y-129978628D02*
X122285714Y-129978628D01*
X123809523Y-130454819D02*
X123238095Y-130454819D01*
X123523809Y-130454819D02*
X123523809Y-129454819D01*
X123523809Y-129454819D02*
X123428571Y-129597676D01*
X123428571Y-129597676D02*
X123333333Y-129692914D01*
X123333333Y-129692914D02*
X123238095Y-129740533D01*
X124190476Y-129550057D02*
X124238095Y-129502438D01*
X124238095Y-129502438D02*
X124333333Y-129454819D01*
X124333333Y-129454819D02*
X124571428Y-129454819D01*
X124571428Y-129454819D02*
X124666666Y-129502438D01*
X124666666Y-129502438D02*
X124714285Y-129550057D01*
X124714285Y-129550057D02*
X124761904Y-129645295D01*
X124761904Y-129645295D02*
X124761904Y-129740533D01*
X124761904Y-129740533D02*
X124714285Y-129883390D01*
X124714285Y-129883390D02*
X124142857Y-130454819D01*
X124142857Y-130454819D02*
X124761904Y-130454819D01*
X140761905Y-118954819D02*
X140761905Y-117954819D01*
X140761905Y-117954819D02*
X141000000Y-117954819D01*
X141000000Y-117954819D02*
X141142857Y-118002438D01*
X141142857Y-118002438D02*
X141238095Y-118097676D01*
X141238095Y-118097676D02*
X141285714Y-118192914D01*
X141285714Y-118192914D02*
X141333333Y-118383390D01*
X141333333Y-118383390D02*
X141333333Y-118526247D01*
X141333333Y-118526247D02*
X141285714Y-118716723D01*
X141285714Y-118716723D02*
X141238095Y-118811961D01*
X141238095Y-118811961D02*
X141142857Y-118907200D01*
X141142857Y-118907200D02*
X141000000Y-118954819D01*
X141000000Y-118954819D02*
X140761905Y-118954819D01*
X142190476Y-117954819D02*
X142000000Y-117954819D01*
X142000000Y-117954819D02*
X141904762Y-118002438D01*
X141904762Y-118002438D02*
X141857143Y-118050057D01*
X141857143Y-118050057D02*
X141761905Y-118192914D01*
X141761905Y-118192914D02*
X141714286Y-118383390D01*
X141714286Y-118383390D02*
X141714286Y-118764342D01*
X141714286Y-118764342D02*
X141761905Y-118859580D01*
X141761905Y-118859580D02*
X141809524Y-118907200D01*
X141809524Y-118907200D02*
X141904762Y-118954819D01*
X141904762Y-118954819D02*
X142095238Y-118954819D01*
X142095238Y-118954819D02*
X142190476Y-118907200D01*
X142190476Y-118907200D02*
X142238095Y-118859580D01*
X142238095Y-118859580D02*
X142285714Y-118764342D01*
X142285714Y-118764342D02*
X142285714Y-118526247D01*
X142285714Y-118526247D02*
X142238095Y-118431009D01*
X142238095Y-118431009D02*
X142190476Y-118383390D01*
X142190476Y-118383390D02*
X142095238Y-118335771D01*
X142095238Y-118335771D02*
X141904762Y-118335771D01*
X141904762Y-118335771D02*
X141809524Y-118383390D01*
X141809524Y-118383390D02*
X141761905Y-118431009D01*
X141761905Y-118431009D02*
X141714286Y-118526247D01*
X138404761Y-125050057D02*
X138309523Y-125002438D01*
X138309523Y-125002438D02*
X138214285Y-124907200D01*
X138214285Y-124907200D02*
X138071428Y-124764342D01*
X138071428Y-124764342D02*
X137976190Y-124716723D01*
X137976190Y-124716723D02*
X137880952Y-124716723D01*
X137928571Y-124954819D02*
X137833333Y-124907200D01*
X137833333Y-124907200D02*
X137738095Y-124811961D01*
X137738095Y-124811961D02*
X137690476Y-124621485D01*
X137690476Y-124621485D02*
X137690476Y-124288152D01*
X137690476Y-124288152D02*
X137738095Y-124097676D01*
X137738095Y-124097676D02*
X137833333Y-124002438D01*
X137833333Y-124002438D02*
X137928571Y-123954819D01*
X137928571Y-123954819D02*
X138119047Y-123954819D01*
X138119047Y-123954819D02*
X138214285Y-124002438D01*
X138214285Y-124002438D02*
X138309523Y-124097676D01*
X138309523Y-124097676D02*
X138357142Y-124288152D01*
X138357142Y-124288152D02*
X138357142Y-124621485D01*
X138357142Y-124621485D02*
X138309523Y-124811961D01*
X138309523Y-124811961D02*
X138214285Y-124907200D01*
X138214285Y-124907200D02*
X138119047Y-124954819D01*
X138119047Y-124954819D02*
X137928571Y-124954819D01*
X139309523Y-124954819D02*
X138738095Y-124954819D01*
X139023809Y-124954819D02*
X139023809Y-123954819D01*
X139023809Y-123954819D02*
X138928571Y-124097676D01*
X138928571Y-124097676D02*
X138833333Y-124192914D01*
X138833333Y-124192914D02*
X138738095Y-124240533D01*
X154333333Y-104859580D02*
X154285714Y-104907200D01*
X154285714Y-104907200D02*
X154142857Y-104954819D01*
X154142857Y-104954819D02*
X154047619Y-104954819D01*
X154047619Y-104954819D02*
X153904762Y-104907200D01*
X153904762Y-104907200D02*
X153809524Y-104811961D01*
X153809524Y-104811961D02*
X153761905Y-104716723D01*
X153761905Y-104716723D02*
X153714286Y-104526247D01*
X153714286Y-104526247D02*
X153714286Y-104383390D01*
X153714286Y-104383390D02*
X153761905Y-104192914D01*
X153761905Y-104192914D02*
X153809524Y-104097676D01*
X153809524Y-104097676D02*
X153904762Y-104002438D01*
X153904762Y-104002438D02*
X154047619Y-103954819D01*
X154047619Y-103954819D02*
X154142857Y-103954819D01*
X154142857Y-103954819D02*
X154285714Y-104002438D01*
X154285714Y-104002438D02*
X154333333Y-104050057D01*
X155190476Y-104288152D02*
X155190476Y-104954819D01*
X154952381Y-103907200D02*
X154714286Y-104621485D01*
X154714286Y-104621485D02*
X155333333Y-104621485D01*
X130454819Y-145166666D02*
X129978628Y-145499999D01*
X130454819Y-145738094D02*
X129454819Y-145738094D01*
X129454819Y-145738094D02*
X129454819Y-145357142D01*
X129454819Y-145357142D02*
X129502438Y-145261904D01*
X129502438Y-145261904D02*
X129550057Y-145214285D01*
X129550057Y-145214285D02*
X129645295Y-145166666D01*
X129645295Y-145166666D02*
X129788152Y-145166666D01*
X129788152Y-145166666D02*
X129883390Y-145214285D01*
X129883390Y-145214285D02*
X129931009Y-145261904D01*
X129931009Y-145261904D02*
X129978628Y-145357142D01*
X129978628Y-145357142D02*
X129978628Y-145738094D01*
X129788152Y-144309523D02*
X130454819Y-144309523D01*
X129407200Y-144547618D02*
X130121485Y-144785713D01*
X130121485Y-144785713D02*
X130121485Y-144166666D01*
X131954819Y-131142857D02*
X131478628Y-131476190D01*
X131954819Y-131714285D02*
X130954819Y-131714285D01*
X130954819Y-131714285D02*
X130954819Y-131333333D01*
X130954819Y-131333333D02*
X131002438Y-131238095D01*
X131002438Y-131238095D02*
X131050057Y-131190476D01*
X131050057Y-131190476D02*
X131145295Y-131142857D01*
X131145295Y-131142857D02*
X131288152Y-131142857D01*
X131288152Y-131142857D02*
X131383390Y-131190476D01*
X131383390Y-131190476D02*
X131431009Y-131238095D01*
X131431009Y-131238095D02*
X131478628Y-131333333D01*
X131478628Y-131333333D02*
X131478628Y-131714285D01*
X131954819Y-130190476D02*
X131954819Y-130761904D01*
X131954819Y-130476190D02*
X130954819Y-130476190D01*
X130954819Y-130476190D02*
X131097676Y-130571428D01*
X131097676Y-130571428D02*
X131192914Y-130666666D01*
X131192914Y-130666666D02*
X131240533Y-130761904D01*
X131954819Y-129238095D02*
X131954819Y-129809523D01*
X131954819Y-129523809D02*
X130954819Y-129523809D01*
X130954819Y-129523809D02*
X131097676Y-129619047D01*
X131097676Y-129619047D02*
X131192914Y-129714285D01*
X131192914Y-129714285D02*
X131240533Y-129809523D01*
X153666666Y-153454819D02*
X153666666Y-154169104D01*
X153666666Y-154169104D02*
X153619047Y-154311961D01*
X153619047Y-154311961D02*
X153523809Y-154407200D01*
X153523809Y-154407200D02*
X153380952Y-154454819D01*
X153380952Y-154454819D02*
X153285714Y-154454819D01*
X154666666Y-154454819D02*
X154095238Y-154454819D01*
X154380952Y-154454819D02*
X154380952Y-153454819D01*
X154380952Y-153454819D02*
X154285714Y-153597676D01*
X154285714Y-153597676D02*
X154190476Y-153692914D01*
X154190476Y-153692914D02*
X154095238Y-153740533D01*
X127859580Y-144666666D02*
X127907200Y-144714285D01*
X127907200Y-144714285D02*
X127954819Y-144857142D01*
X127954819Y-144857142D02*
X127954819Y-144952380D01*
X127954819Y-144952380D02*
X127907200Y-145095237D01*
X127907200Y-145095237D02*
X127811961Y-145190475D01*
X127811961Y-145190475D02*
X127716723Y-145238094D01*
X127716723Y-145238094D02*
X127526247Y-145285713D01*
X127526247Y-145285713D02*
X127383390Y-145285713D01*
X127383390Y-145285713D02*
X127192914Y-145238094D01*
X127192914Y-145238094D02*
X127097676Y-145190475D01*
X127097676Y-145190475D02*
X127002438Y-145095237D01*
X127002438Y-145095237D02*
X126954819Y-144952380D01*
X126954819Y-144952380D02*
X126954819Y-144857142D01*
X126954819Y-144857142D02*
X127002438Y-144714285D01*
X127002438Y-144714285D02*
X127050057Y-144666666D01*
X126954819Y-143761904D02*
X126954819Y-144238094D01*
X126954819Y-144238094D02*
X127431009Y-144285713D01*
X127431009Y-144285713D02*
X127383390Y-144238094D01*
X127383390Y-144238094D02*
X127335771Y-144142856D01*
X127335771Y-144142856D02*
X127335771Y-143904761D01*
X127335771Y-143904761D02*
X127383390Y-143809523D01*
X127383390Y-143809523D02*
X127431009Y-143761904D01*
X127431009Y-143761904D02*
X127526247Y-143714285D01*
X127526247Y-143714285D02*
X127764342Y-143714285D01*
X127764342Y-143714285D02*
X127859580Y-143761904D01*
X127859580Y-143761904D02*
X127907200Y-143809523D01*
X127907200Y-143809523D02*
X127954819Y-143904761D01*
X127954819Y-143904761D02*
X127954819Y-144142856D01*
X127954819Y-144142856D02*
X127907200Y-144238094D01*
X127907200Y-144238094D02*
X127859580Y-144285713D01*
X131261905Y-108954819D02*
X131261905Y-107954819D01*
X131261905Y-107954819D02*
X131500000Y-107954819D01*
X131500000Y-107954819D02*
X131642857Y-108002438D01*
X131642857Y-108002438D02*
X131738095Y-108097676D01*
X131738095Y-108097676D02*
X131785714Y-108192914D01*
X131785714Y-108192914D02*
X131833333Y-108383390D01*
X131833333Y-108383390D02*
X131833333Y-108526247D01*
X131833333Y-108526247D02*
X131785714Y-108716723D01*
X131785714Y-108716723D02*
X131738095Y-108811961D01*
X131738095Y-108811961D02*
X131642857Y-108907200D01*
X131642857Y-108907200D02*
X131500000Y-108954819D01*
X131500000Y-108954819D02*
X131261905Y-108954819D01*
X132738095Y-107954819D02*
X132261905Y-107954819D01*
X132261905Y-107954819D02*
X132214286Y-108431009D01*
X132214286Y-108431009D02*
X132261905Y-108383390D01*
X132261905Y-108383390D02*
X132357143Y-108335771D01*
X132357143Y-108335771D02*
X132595238Y-108335771D01*
X132595238Y-108335771D02*
X132690476Y-108383390D01*
X132690476Y-108383390D02*
X132738095Y-108431009D01*
X132738095Y-108431009D02*
X132785714Y-108526247D01*
X132785714Y-108526247D02*
X132785714Y-108764342D01*
X132785714Y-108764342D02*
X132738095Y-108859580D01*
X132738095Y-108859580D02*
X132690476Y-108907200D01*
X132690476Y-108907200D02*
X132595238Y-108954819D01*
X132595238Y-108954819D02*
X132357143Y-108954819D01*
X132357143Y-108954819D02*
X132261905Y-108907200D01*
X132261905Y-108907200D02*
X132214286Y-108859580D01*
X159911905Y-117204819D02*
X159911905Y-116204819D01*
X160483333Y-117204819D02*
X160054762Y-116633390D01*
X160483333Y-116204819D02*
X159911905Y-116776247D01*
X161435714Y-117204819D02*
X160864286Y-117204819D01*
X161150000Y-117204819D02*
X161150000Y-116204819D01*
X161150000Y-116204819D02*
X161054762Y-116347676D01*
X161054762Y-116347676D02*
X160959524Y-116442914D01*
X160959524Y-116442914D02*
X160864286Y-116490533D01*
X141761905Y-130454819D02*
X141761905Y-129454819D01*
X141761905Y-129454819D02*
X142000000Y-129454819D01*
X142000000Y-129454819D02*
X142142857Y-129502438D01*
X142142857Y-129502438D02*
X142238095Y-129597676D01*
X142238095Y-129597676D02*
X142285714Y-129692914D01*
X142285714Y-129692914D02*
X142333333Y-129883390D01*
X142333333Y-129883390D02*
X142333333Y-130026247D01*
X142333333Y-130026247D02*
X142285714Y-130216723D01*
X142285714Y-130216723D02*
X142238095Y-130311961D01*
X142238095Y-130311961D02*
X142142857Y-130407200D01*
X142142857Y-130407200D02*
X142000000Y-130454819D01*
X142000000Y-130454819D02*
X141761905Y-130454819D01*
X143190476Y-129788152D02*
X143190476Y-130454819D01*
X142952381Y-129407200D02*
X142714286Y-130121485D01*
X142714286Y-130121485D02*
X143333333Y-130121485D01*
X136333333Y-140454819D02*
X136000000Y-139978628D01*
X135761905Y-140454819D02*
X135761905Y-139454819D01*
X135761905Y-139454819D02*
X136142857Y-139454819D01*
X136142857Y-139454819D02*
X136238095Y-139502438D01*
X136238095Y-139502438D02*
X136285714Y-139550057D01*
X136285714Y-139550057D02*
X136333333Y-139645295D01*
X136333333Y-139645295D02*
X136333333Y-139788152D01*
X136333333Y-139788152D02*
X136285714Y-139883390D01*
X136285714Y-139883390D02*
X136238095Y-139931009D01*
X136238095Y-139931009D02*
X136142857Y-139978628D01*
X136142857Y-139978628D02*
X135761905Y-139978628D01*
X136904762Y-139883390D02*
X136809524Y-139835771D01*
X136809524Y-139835771D02*
X136761905Y-139788152D01*
X136761905Y-139788152D02*
X136714286Y-139692914D01*
X136714286Y-139692914D02*
X136714286Y-139645295D01*
X136714286Y-139645295D02*
X136761905Y-139550057D01*
X136761905Y-139550057D02*
X136809524Y-139502438D01*
X136809524Y-139502438D02*
X136904762Y-139454819D01*
X136904762Y-139454819D02*
X137095238Y-139454819D01*
X137095238Y-139454819D02*
X137190476Y-139502438D01*
X137190476Y-139502438D02*
X137238095Y-139550057D01*
X137238095Y-139550057D02*
X137285714Y-139645295D01*
X137285714Y-139645295D02*
X137285714Y-139692914D01*
X137285714Y-139692914D02*
X137238095Y-139788152D01*
X137238095Y-139788152D02*
X137190476Y-139835771D01*
X137190476Y-139835771D02*
X137095238Y-139883390D01*
X137095238Y-139883390D02*
X136904762Y-139883390D01*
X136904762Y-139883390D02*
X136809524Y-139931009D01*
X136809524Y-139931009D02*
X136761905Y-139978628D01*
X136761905Y-139978628D02*
X136714286Y-140073866D01*
X136714286Y-140073866D02*
X136714286Y-140264342D01*
X136714286Y-140264342D02*
X136761905Y-140359580D01*
X136761905Y-140359580D02*
X136809524Y-140407200D01*
X136809524Y-140407200D02*
X136904762Y-140454819D01*
X136904762Y-140454819D02*
X137095238Y-140454819D01*
X137095238Y-140454819D02*
X137190476Y-140407200D01*
X137190476Y-140407200D02*
X137238095Y-140359580D01*
X137238095Y-140359580D02*
X137285714Y-140264342D01*
X137285714Y-140264342D02*
X137285714Y-140073866D01*
X137285714Y-140073866D02*
X137238095Y-139978628D01*
X137238095Y-139978628D02*
X137190476Y-139931009D01*
X137190476Y-139931009D02*
X137095238Y-139883390D01*
X128954819Y-131142857D02*
X128478628Y-131476190D01*
X128954819Y-131714285D02*
X127954819Y-131714285D01*
X127954819Y-131714285D02*
X127954819Y-131333333D01*
X127954819Y-131333333D02*
X128002438Y-131238095D01*
X128002438Y-131238095D02*
X128050057Y-131190476D01*
X128050057Y-131190476D02*
X128145295Y-131142857D01*
X128145295Y-131142857D02*
X128288152Y-131142857D01*
X128288152Y-131142857D02*
X128383390Y-131190476D01*
X128383390Y-131190476D02*
X128431009Y-131238095D01*
X128431009Y-131238095D02*
X128478628Y-131333333D01*
X128478628Y-131333333D02*
X128478628Y-131714285D01*
X128954819Y-130190476D02*
X128954819Y-130761904D01*
X128954819Y-130476190D02*
X127954819Y-130476190D01*
X127954819Y-130476190D02*
X128097676Y-130571428D01*
X128097676Y-130571428D02*
X128192914Y-130666666D01*
X128192914Y-130666666D02*
X128240533Y-130761904D01*
X127954819Y-129571428D02*
X127954819Y-129476190D01*
X127954819Y-129476190D02*
X128002438Y-129380952D01*
X128002438Y-129380952D02*
X128050057Y-129333333D01*
X128050057Y-129333333D02*
X128145295Y-129285714D01*
X128145295Y-129285714D02*
X128335771Y-129238095D01*
X128335771Y-129238095D02*
X128573866Y-129238095D01*
X128573866Y-129238095D02*
X128764342Y-129285714D01*
X128764342Y-129285714D02*
X128859580Y-129333333D01*
X128859580Y-129333333D02*
X128907200Y-129380952D01*
X128907200Y-129380952D02*
X128954819Y-129476190D01*
X128954819Y-129476190D02*
X128954819Y-129571428D01*
X128954819Y-129571428D02*
X128907200Y-129666666D01*
X128907200Y-129666666D02*
X128859580Y-129714285D01*
X128859580Y-129714285D02*
X128764342Y-129761904D01*
X128764342Y-129761904D02*
X128573866Y-129809523D01*
X128573866Y-129809523D02*
X128335771Y-129809523D01*
X128335771Y-129809523D02*
X128145295Y-129761904D01*
X128145295Y-129761904D02*
X128050057Y-129714285D01*
X128050057Y-129714285D02*
X128002438Y-129666666D01*
X128002438Y-129666666D02*
X127954819Y-129571428D01*
X121666666Y-94954819D02*
X121666666Y-95669104D01*
X121666666Y-95669104D02*
X121619047Y-95811961D01*
X121619047Y-95811961D02*
X121523809Y-95907200D01*
X121523809Y-95907200D02*
X121380952Y-95954819D01*
X121380952Y-95954819D02*
X121285714Y-95954819D01*
X122095238Y-95050057D02*
X122142857Y-95002438D01*
X122142857Y-95002438D02*
X122238095Y-94954819D01*
X122238095Y-94954819D02*
X122476190Y-94954819D01*
X122476190Y-94954819D02*
X122571428Y-95002438D01*
X122571428Y-95002438D02*
X122619047Y-95050057D01*
X122619047Y-95050057D02*
X122666666Y-95145295D01*
X122666666Y-95145295D02*
X122666666Y-95240533D01*
X122666666Y-95240533D02*
X122619047Y-95383390D01*
X122619047Y-95383390D02*
X122047619Y-95954819D01*
X122047619Y-95954819D02*
X122666666Y-95954819D01*
X123333333Y-131954819D02*
X123000000Y-131478628D01*
X122761905Y-131954819D02*
X122761905Y-130954819D01*
X122761905Y-130954819D02*
X123142857Y-130954819D01*
X123142857Y-130954819D02*
X123238095Y-131002438D01*
X123238095Y-131002438D02*
X123285714Y-131050057D01*
X123285714Y-131050057D02*
X123333333Y-131145295D01*
X123333333Y-131145295D02*
X123333333Y-131288152D01*
X123333333Y-131288152D02*
X123285714Y-131383390D01*
X123285714Y-131383390D02*
X123238095Y-131431009D01*
X123238095Y-131431009D02*
X123142857Y-131478628D01*
X123142857Y-131478628D02*
X122761905Y-131478628D01*
X123666667Y-130954819D02*
X124333333Y-130954819D01*
X124333333Y-130954819D02*
X123904762Y-131954819D01*
X172666666Y-94954819D02*
X172666666Y-95669104D01*
X172666666Y-95669104D02*
X172619047Y-95811961D01*
X172619047Y-95811961D02*
X172523809Y-95907200D01*
X172523809Y-95907200D02*
X172380952Y-95954819D01*
X172380952Y-95954819D02*
X172285714Y-95954819D01*
X173047619Y-94954819D02*
X173666666Y-94954819D01*
X173666666Y-94954819D02*
X173333333Y-95335771D01*
X173333333Y-95335771D02*
X173476190Y-95335771D01*
X173476190Y-95335771D02*
X173571428Y-95383390D01*
X173571428Y-95383390D02*
X173619047Y-95431009D01*
X173619047Y-95431009D02*
X173666666Y-95526247D01*
X173666666Y-95526247D02*
X173666666Y-95764342D01*
X173666666Y-95764342D02*
X173619047Y-95859580D01*
X173619047Y-95859580D02*
X173571428Y-95907200D01*
X173571428Y-95907200D02*
X173476190Y-95954819D01*
X173476190Y-95954819D02*
X173190476Y-95954819D01*
X173190476Y-95954819D02*
X173095238Y-95907200D01*
X173095238Y-95907200D02*
X173047619Y-95859580D01*
X169166666Y-153454819D02*
X169166666Y-154169104D01*
X169166666Y-154169104D02*
X169119047Y-154311961D01*
X169119047Y-154311961D02*
X169023809Y-154407200D01*
X169023809Y-154407200D02*
X168880952Y-154454819D01*
X168880952Y-154454819D02*
X168785714Y-154454819D01*
X170071428Y-153788152D02*
X170071428Y-154454819D01*
X169833333Y-153407200D02*
X169595238Y-154121485D01*
X169595238Y-154121485D02*
X170214285Y-154121485D01*
X135857142Y-130454819D02*
X135523809Y-129978628D01*
X135285714Y-130454819D02*
X135285714Y-129454819D01*
X135285714Y-129454819D02*
X135666666Y-129454819D01*
X135666666Y-129454819D02*
X135761904Y-129502438D01*
X135761904Y-129502438D02*
X135809523Y-129550057D01*
X135809523Y-129550057D02*
X135857142Y-129645295D01*
X135857142Y-129645295D02*
X135857142Y-129788152D01*
X135857142Y-129788152D02*
X135809523Y-129883390D01*
X135809523Y-129883390D02*
X135761904Y-129931009D01*
X135761904Y-129931009D02*
X135666666Y-129978628D01*
X135666666Y-129978628D02*
X135285714Y-129978628D01*
X136809523Y-130454819D02*
X136238095Y-130454819D01*
X136523809Y-130454819D02*
X136523809Y-129454819D01*
X136523809Y-129454819D02*
X136428571Y-129597676D01*
X136428571Y-129597676D02*
X136333333Y-129692914D01*
X136333333Y-129692914D02*
X136238095Y-129740533D01*
X137142857Y-129454819D02*
X137761904Y-129454819D01*
X137761904Y-129454819D02*
X137428571Y-129835771D01*
X137428571Y-129835771D02*
X137571428Y-129835771D01*
X137571428Y-129835771D02*
X137666666Y-129883390D01*
X137666666Y-129883390D02*
X137714285Y-129931009D01*
X137714285Y-129931009D02*
X137761904Y-130026247D01*
X137761904Y-130026247D02*
X137761904Y-130264342D01*
X137761904Y-130264342D02*
X137714285Y-130359580D01*
X137714285Y-130359580D02*
X137666666Y-130407200D01*
X137666666Y-130407200D02*
X137571428Y-130454819D01*
X137571428Y-130454819D02*
X137285714Y-130454819D01*
X137285714Y-130454819D02*
X137190476Y-130407200D01*
X137190476Y-130407200D02*
X137142857Y-130359580D01*
X136333333Y-131954819D02*
X136000000Y-131478628D01*
X135761905Y-131954819D02*
X135761905Y-130954819D01*
X135761905Y-130954819D02*
X136142857Y-130954819D01*
X136142857Y-130954819D02*
X136238095Y-131002438D01*
X136238095Y-131002438D02*
X136285714Y-131050057D01*
X136285714Y-131050057D02*
X136333333Y-131145295D01*
X136333333Y-131145295D02*
X136333333Y-131288152D01*
X136333333Y-131288152D02*
X136285714Y-131383390D01*
X136285714Y-131383390D02*
X136238095Y-131431009D01*
X136238095Y-131431009D02*
X136142857Y-131478628D01*
X136142857Y-131478628D02*
X135761905Y-131478628D01*
X136809524Y-131954819D02*
X137000000Y-131954819D01*
X137000000Y-131954819D02*
X137095238Y-131907200D01*
X137095238Y-131907200D02*
X137142857Y-131859580D01*
X137142857Y-131859580D02*
X137238095Y-131716723D01*
X137238095Y-131716723D02*
X137285714Y-131526247D01*
X137285714Y-131526247D02*
X137285714Y-131145295D01*
X137285714Y-131145295D02*
X137238095Y-131050057D01*
X137238095Y-131050057D02*
X137190476Y-131002438D01*
X137190476Y-131002438D02*
X137095238Y-130954819D01*
X137095238Y-130954819D02*
X136904762Y-130954819D01*
X136904762Y-130954819D02*
X136809524Y-131002438D01*
X136809524Y-131002438D02*
X136761905Y-131050057D01*
X136761905Y-131050057D02*
X136714286Y-131145295D01*
X136714286Y-131145295D02*
X136714286Y-131383390D01*
X136714286Y-131383390D02*
X136761905Y-131478628D01*
X136761905Y-131478628D02*
X136809524Y-131526247D01*
X136809524Y-131526247D02*
X136904762Y-131573866D01*
X136904762Y-131573866D02*
X137095238Y-131573866D01*
X137095238Y-131573866D02*
X137190476Y-131526247D01*
X137190476Y-131526247D02*
X137238095Y-131478628D01*
X137238095Y-131478628D02*
X137285714Y-131383390D01*
%TO.C,D2*%
D19*
X134450000Y-107500000D02*
X146550000Y-107500000D01*
X134450000Y-115500000D02*
X134450000Y-107500000D01*
X134450000Y-115500000D02*
X146550000Y-115500000D01*
X146550000Y-115500000D02*
X146550000Y-107500000D01*
%TO.C,C6*%
D20*
X131765000Y-141761252D02*
X131765000Y-141238748D01*
X133235000Y-141761252D02*
X133235000Y-141238748D01*
%TO.C,D1*%
X125565000Y-122940000D02*
X125630000Y-122940000D01*
X125565000Y-127060000D02*
X125565000Y-122940000D01*
X125630000Y-127060000D02*
X125565000Y-127060000D01*
X134370000Y-122940000D02*
X134435000Y-122940000D01*
X134435000Y-122940000D02*
X134435000Y-127060000D01*
X134435000Y-127060000D02*
X134370000Y-127060000D01*
X125630000Y-127600000D02*
X125300000Y-127840000D01*
X125300000Y-127360000D01*
X125630000Y-127600000D01*
G36*
X125630000Y-127600000D02*
G01*
X125300000Y-127840000D01*
X125300000Y-127360000D01*
X125630000Y-127600000D01*
G37*
%TO.C,RV1*%
D14*
X114439500Y-132430000D02*
X114439500Y-139420000D01*
X114439500Y-139420000D02*
X121039500Y-139420000D01*
X121039500Y-132430000D02*
X114439500Y-132430000D01*
X121039500Y-139420000D02*
X121039500Y-132430000D01*
X114074500Y-135888000D02*
G75*
G02*
X113960500Y-135888000I-57000J0D01*
G01*
X113960500Y-135888000D02*
G75*
G02*
X114074500Y-135888000I57000J0D01*
G01*
%TO.C,D28*%
D20*
X160540000Y-110500000D02*
X160540000Y-113360000D01*
X160540000Y-113360000D02*
X162460000Y-113360000D01*
X162460000Y-113360000D02*
X162460000Y-110500000D01*
%TO.C,U2*%
X127940000Y-133940000D02*
X132060000Y-133940000D01*
X127940000Y-134035000D02*
X127940000Y-133940000D01*
X127940000Y-139060000D02*
X127940000Y-138965000D01*
X132060000Y-133940000D02*
X132060000Y-134035000D01*
X132060000Y-138965000D02*
X132060000Y-139060000D01*
X132060000Y-139060000D02*
X127940000Y-139060000D01*
X127400000Y-134030000D02*
X127160000Y-133700000D01*
X127640000Y-133700000D01*
X127400000Y-134030000D01*
G36*
X127400000Y-134030000D02*
G01*
X127160000Y-133700000D01*
X127640000Y-133700000D01*
X127400000Y-134030000D01*
G37*
%TO.C,C53*%
X148195785Y-111761252D02*
X148195785Y-111238748D01*
X149665785Y-111761252D02*
X149665785Y-111238748D01*
%TO.C,U5*%
X152650000Y-108090000D02*
X156410000Y-108090000D01*
X152650000Y-114910000D02*
X156410000Y-114910000D01*
X156410000Y-108090000D02*
X156410000Y-109350000D01*
X156410000Y-114910000D02*
X156410000Y-113650000D01*
X151370000Y-108190000D02*
X151130000Y-107860000D01*
X151610000Y-107860000D01*
X151370000Y-108190000D01*
G36*
X151370000Y-108190000D02*
G01*
X151130000Y-107860000D01*
X151610000Y-107860000D01*
X151370000Y-108190000D01*
G37*
D21*
%TO.C,D3*%
G36*
X149392105Y-96131260D02*
G01*
X149476961Y-96153855D01*
X149592237Y-96190539D01*
X149723421Y-96236303D01*
X149856004Y-96286143D01*
X149975475Y-96335049D01*
X150045334Y-96366926D01*
X150527742Y-96635740D01*
X150966822Y-96948968D01*
X151360202Y-97303753D01*
X151705512Y-97697236D01*
X152000382Y-98126558D01*
X152242440Y-98588861D01*
X152429317Y-99081286D01*
X152497937Y-99324397D01*
X152601887Y-99860602D01*
X152641977Y-100391620D01*
X152618218Y-100917133D01*
X152530618Y-101436822D01*
X152422204Y-101825098D01*
X152228962Y-102314989D01*
X151981911Y-102775116D01*
X151685329Y-103201461D01*
X151343492Y-103590005D01*
X150960676Y-103936728D01*
X150541160Y-104237611D01*
X150089219Y-104488635D01*
X149609130Y-104685780D01*
X149271027Y-104786443D01*
X149106861Y-104827129D01*
X148994966Y-104851640D01*
X148925793Y-104860899D01*
X148889794Y-104855831D01*
X148877420Y-104837359D01*
X148877035Y-104824558D01*
X148891475Y-104784545D01*
X148930357Y-104696768D01*
X148989232Y-104570728D01*
X149063654Y-104415929D01*
X149149175Y-104241874D01*
X149158436Y-104223232D01*
X149437556Y-103661994D01*
X149709374Y-103517184D01*
X149938026Y-103389545D01*
X150126950Y-103269105D01*
X150296790Y-103141399D01*
X150468191Y-102991959D01*
X150496758Y-102965422D01*
X150821699Y-102619906D01*
X151091787Y-102242011D01*
X151308196Y-101829747D01*
X151472101Y-101381126D01*
X151507367Y-101254040D01*
X151537557Y-101127422D01*
X151558638Y-101007743D01*
X151572179Y-100878485D01*
X151579748Y-100723127D01*
X151582913Y-100525151D01*
X151583239Y-100454924D01*
X151581794Y-100223221D01*
X151574372Y-100037382D01*
X151558613Y-99879233D01*
X151532156Y-99730598D01*
X151492639Y-99573302D01*
X151449928Y-99428661D01*
X151287348Y-99005721D01*
X151069875Y-98608127D01*
X150802994Y-98241741D01*
X150492191Y-97912423D01*
X150142950Y-97626035D01*
X149760756Y-97388439D01*
X149379273Y-97215920D01*
X149289402Y-97179077D01*
X149246558Y-97146576D01*
X149236888Y-97102563D01*
X149242052Y-97058863D01*
X149250969Y-96988976D01*
X149263791Y-96871331D01*
X149278835Y-96722068D01*
X149294419Y-96557326D01*
X149295134Y-96549499D01*
X149310620Y-96394725D01*
X149326210Y-96264789D01*
X149340224Y-96172117D01*
X149350980Y-96129135D01*
X149352179Y-96127759D01*
X149392105Y-96131260D01*
G37*
G36*
X147524234Y-95998892D02*
G01*
X147514745Y-96030262D01*
X147480696Y-96110211D01*
X147426133Y-96229903D01*
X147355099Y-96380506D01*
X147271637Y-96553185D01*
X147254245Y-96588705D01*
X146971228Y-97165491D01*
X146616109Y-97341390D01*
X146293661Y-97517535D01*
X146015556Y-97707661D01*
X145761997Y-97926205D01*
X145626610Y-98062919D01*
X145319296Y-98433419D01*
X145069360Y-98832578D01*
X144876757Y-99260474D01*
X144777143Y-99572979D01*
X144746386Y-99693745D01*
X144724327Y-99801535D01*
X144709537Y-99911309D01*
X144700587Y-100038027D01*
X144696049Y-100196650D01*
X144694492Y-100402137D01*
X144694427Y-100438888D01*
X144695009Y-100651145D01*
X144698351Y-100814296D01*
X144705897Y-100943362D01*
X144719088Y-101053366D01*
X144739368Y-101159328D01*
X144768180Y-101276271D01*
X144778611Y-101315401D01*
X144864123Y-101578290D01*
X144980265Y-101857416D01*
X145116288Y-102130401D01*
X145261443Y-102374868D01*
X145344280Y-102493052D01*
X145479183Y-102656159D01*
X145644657Y-102832538D01*
X145824354Y-103006480D01*
X146001926Y-103162279D01*
X146161022Y-103284225D01*
X146183711Y-103299571D01*
X146330428Y-103389801D01*
X146503452Y-103485936D01*
X146681626Y-103577055D01*
X146843792Y-103652235D01*
X146944900Y-103692551D01*
X147012752Y-103719345D01*
X147047075Y-103750829D01*
X147058222Y-103806841D01*
X147056572Y-103906516D01*
X147047764Y-104067289D01*
X147033423Y-104235624D01*
X147015211Y-104399424D01*
X146994793Y-104546594D01*
X146973830Y-104665037D01*
X146953985Y-104742656D01*
X146938211Y-104767614D01*
X146892290Y-104757423D01*
X146803572Y-104731228D01*
X146689764Y-104694312D01*
X146668829Y-104687225D01*
X146441757Y-104598816D01*
X146188615Y-104481994D01*
X145933169Y-104348725D01*
X145699184Y-104210974D01*
X145618825Y-104158584D01*
X145193162Y-103833727D01*
X144814516Y-103467093D01*
X144485041Y-103062746D01*
X144206891Y-102624751D01*
X143982221Y-102157172D01*
X143813185Y-101664075D01*
X143701939Y-101149524D01*
X143650636Y-100617583D01*
X143647228Y-100438888D01*
X143678105Y-99903743D01*
X143768954Y-99386135D01*
X143917093Y-98889846D01*
X144119845Y-98418657D01*
X144374531Y-97976349D01*
X144678473Y-97566703D01*
X145028991Y-97193499D01*
X145423407Y-96860519D01*
X145859042Y-96571544D01*
X146333218Y-96330355D01*
X146645839Y-96206314D01*
X146774255Y-96164167D01*
X146923029Y-96120963D01*
X147079183Y-96079765D01*
X147229737Y-96043640D01*
X147361714Y-96015651D01*
X147462135Y-95998863D01*
X147518023Y-95996341D01*
X147524234Y-95998892D01*
G37*
G36*
X148788145Y-95504897D02*
G01*
X148866172Y-95520419D01*
X148893282Y-95543039D01*
X148895008Y-95587366D01*
X148889793Y-95684475D01*
X148878514Y-95823486D01*
X148862051Y-95993519D01*
X148842116Y-96176436D01*
X148814597Y-96416530D01*
X148783947Y-96684043D01*
X148753170Y-96952752D01*
X148725268Y-97196434D01*
X148713877Y-97295959D01*
X148681714Y-97575644D01*
X148647412Y-97871524D01*
X148612455Y-98170991D01*
X148578326Y-98461436D01*
X148546509Y-98730250D01*
X148518485Y-98964827D01*
X148495740Y-99152556D01*
X148489490Y-99203325D01*
X148474609Y-99327800D01*
X148463484Y-99428961D01*
X148458068Y-99488830D01*
X148457834Y-99495099D01*
X148480230Y-99506051D01*
X148549471Y-99515770D01*
X148668632Y-99524404D01*
X148840791Y-99532104D01*
X149069023Y-99539018D01*
X149356406Y-99545296D01*
X149566319Y-99548945D01*
X149865197Y-99554000D01*
X150106507Y-99558851D01*
X150296822Y-99563913D01*
X150442714Y-99569601D01*
X150550754Y-99576331D01*
X150627513Y-99584518D01*
X150679563Y-99594577D01*
X150713476Y-99606925D01*
X150735824Y-99621976D01*
X150736900Y-99622937D01*
X150766126Y-99651966D01*
X150787874Y-99683365D01*
X150800404Y-99721527D01*
X150801973Y-99770842D01*
X150790838Y-99835702D01*
X150765258Y-99920496D01*
X150723491Y-100029617D01*
X150663794Y-100167456D01*
X150584425Y-100338403D01*
X150483644Y-100546849D01*
X150359706Y-100797186D01*
X150210871Y-101093805D01*
X150035395Y-101441097D01*
X149943936Y-101621673D01*
X149669817Y-102162284D01*
X149412055Y-102669857D01*
X149171746Y-103142255D01*
X148949989Y-103577338D01*
X148747881Y-103972969D01*
X148566520Y-104327008D01*
X148407005Y-104637318D01*
X148270433Y-104901760D01*
X148157901Y-105118196D01*
X148070509Y-105284488D01*
X148009353Y-105398497D01*
X147975531Y-105458085D01*
X147970369Y-105465670D01*
X147915906Y-105489664D01*
X147805135Y-105503278D01*
X147700856Y-105506060D01*
X147579340Y-105504771D01*
X147507075Y-105497734D01*
X147469176Y-105480190D01*
X147450762Y-105447384D01*
X147444282Y-105424055D01*
X147437652Y-105389635D01*
X147434459Y-105346088D01*
X147435344Y-105285745D01*
X147440947Y-105200938D01*
X147451910Y-105084000D01*
X147468872Y-104927262D01*
X147492475Y-104723057D01*
X147523360Y-104463716D01*
X147527206Y-104431691D01*
X147553255Y-104213088D01*
X147583418Y-103957089D01*
X147614612Y-103690035D01*
X147643753Y-103438266D01*
X147654881Y-103341287D01*
X147693753Y-103001411D01*
X147726038Y-102719091D01*
X147752442Y-102488158D01*
X147773669Y-102302442D01*
X147790423Y-102155774D01*
X147803409Y-102041984D01*
X147813331Y-101954902D01*
X147820893Y-101888359D01*
X147826801Y-101836186D01*
X147831757Y-101792213D01*
X147832799Y-101782946D01*
X147849345Y-101635716D01*
X146846708Y-101613521D01*
X146593542Y-101606993D01*
X146356132Y-101599122D01*
X146143418Y-101590341D01*
X145964343Y-101581079D01*
X145827847Y-101571770D01*
X145742871Y-101562843D01*
X145724980Y-101559389D01*
X145606728Y-101502356D01*
X145530526Y-101412418D01*
X145507329Y-101316404D01*
X145521399Y-101278478D01*
X145562024Y-101188080D01*
X145626826Y-101049985D01*
X145713429Y-100868967D01*
X145819454Y-100649799D01*
X145923536Y-100436216D01*
X145942523Y-100397254D01*
X146080259Y-100116108D01*
X146230284Y-99811134D01*
X146252856Y-99765404D01*
X147014652Y-99765404D01*
X147014652Y-100436216D01*
X147014790Y-100665200D01*
X147016473Y-100838011D01*
X147021600Y-100962617D01*
X147032074Y-101046985D01*
X147049794Y-101099084D01*
X147076663Y-101126880D01*
X147114580Y-101138343D01*
X147165448Y-101141438D01*
X147183023Y-101141912D01*
X147271217Y-101144444D01*
X147271217Y-100842048D01*
X147271217Y-100539653D01*
X147559927Y-100529359D01*
X147848637Y-100519065D01*
X147848564Y-100825484D01*
X147848490Y-101131904D01*
X147976773Y-101139473D01*
X148105056Y-101147042D01*
X148105056Y-101070546D01*
X148361621Y-101070546D01*
X148363689Y-101101243D01*
X148376897Y-101121989D01*
X148411751Y-101134732D01*
X148478760Y-101141422D01*
X148588431Y-101144010D01*
X148751270Y-101144444D01*
X148759882Y-101144444D01*
X148917171Y-101142934D01*
X149053859Y-101138820D01*
X149155608Y-101132723D01*
X149208079Y-101125265D01*
X149208872Y-101124977D01*
X149248049Y-101079153D01*
X149259601Y-101012730D01*
X149259601Y-100919949D01*
X149020964Y-100919949D01*
X148903022Y-100915877D01*
X148811651Y-100905126D01*
X148764389Y-100889895D01*
X148762285Y-100887522D01*
X148775158Y-100852784D01*
X148826034Y-100785550D01*
X148905895Y-100696947D01*
X148966004Y-100636167D01*
X149100743Y-100494164D01*
X149187072Y-100377748D01*
X149228832Y-100286838D01*
X149253179Y-100118782D01*
X149221755Y-99972272D01*
X149136315Y-99854934D01*
X149127767Y-99847514D01*
X149061106Y-99800407D01*
X148988682Y-99775427D01*
X148886822Y-99766157D01*
X148824692Y-99765404D01*
X148704684Y-99769107D01*
X148625219Y-99784761D01*
X148562901Y-99819178D01*
X148521877Y-99853598D01*
X148449986Y-99938397D01*
X148399793Y-100032162D01*
X148395327Y-100046022D01*
X148379364Y-100114631D01*
X148393916Y-100143625D01*
X148453495Y-100150006D01*
X148484125Y-100150049D01*
X148572750Y-100139389D01*
X148628996Y-100096697D01*
X148656784Y-100053837D01*
X148728228Y-99979543D01*
X148816247Y-99954756D01*
X148903122Y-99974789D01*
X148971133Y-100034958D01*
X149002561Y-100130575D01*
X149003036Y-100145407D01*
X148993839Y-100215023D01*
X148961146Y-100285949D01*
X148897298Y-100369085D01*
X148794640Y-100475334D01*
X148723913Y-100542835D01*
X148588878Y-100682071D01*
X148478508Y-100820363D01*
X148400775Y-100946097D01*
X148363653Y-101047661D01*
X148361621Y-101070546D01*
X148105056Y-101070546D01*
X148105056Y-100456223D01*
X148105056Y-99765404D01*
X147976773Y-99765404D01*
X147848490Y-99765404D01*
X147848490Y-100039253D01*
X147848490Y-100313103D01*
X147567871Y-100303836D01*
X147287253Y-100294570D01*
X147277938Y-100029987D01*
X147268623Y-99765404D01*
X147141638Y-99765404D01*
X147014652Y-99765404D01*
X146252856Y-99765404D01*
X146390221Y-99487106D01*
X146557692Y-99148797D01*
X146730319Y-98800982D01*
X146905725Y-98448434D01*
X147081531Y-98095927D01*
X147255361Y-97748236D01*
X147424837Y-97410134D01*
X147587581Y-97086394D01*
X147741216Y-96781791D01*
X147883363Y-96501099D01*
X148011645Y-96249092D01*
X148123685Y-96030543D01*
X148217104Y-95850226D01*
X148289526Y-95712915D01*
X148338572Y-95623385D01*
X148360282Y-95588194D01*
X148403200Y-95541285D01*
X148450788Y-95514771D01*
X148522093Y-95502924D01*
X148636162Y-95500019D01*
X148653592Y-95500000D01*
X148788145Y-95504897D01*
G37*
%TO.C,R6*%
D20*
X123727064Y-137765000D02*
X123272936Y-137765000D01*
X123727064Y-139235000D02*
X123272936Y-139235000D01*
%TO.C,TH1*%
X123590000Y-141772936D02*
X123590000Y-143227064D01*
X125410000Y-141772936D02*
X125410000Y-143227064D01*
%TO.C,RV2*%
D14*
X138939500Y-132430000D02*
X138939500Y-139420000D01*
X138939500Y-139420000D02*
X145539500Y-139420000D01*
X145539500Y-132430000D02*
X138939500Y-132430000D01*
X145539500Y-139420000D02*
X145539500Y-132430000D01*
X138574500Y-135888000D02*
G75*
G02*
X138460500Y-135888000I-57000J0D01*
G01*
X138460500Y-135888000D02*
G75*
G02*
X138574500Y-135888000I57000J0D01*
G01*
%TO.C,R12*%
D20*
X123727064Y-132765000D02*
X123272936Y-132765000D01*
X123727064Y-134235000D02*
X123272936Y-134235000D01*
%TO.C,D6*%
X137500000Y-119460000D02*
X140360000Y-119460000D01*
X140360000Y-117540000D02*
X137500000Y-117540000D01*
X140360000Y-119460000D02*
X140360000Y-117540000D01*
%TO.C,Q1*%
X137740000Y-120440000D02*
X139260000Y-120440000D01*
X137740000Y-120490000D02*
X137740000Y-120440000D01*
X137740000Y-122390000D02*
X137740000Y-121610000D01*
X137740000Y-123560000D02*
X137740000Y-123510000D01*
X139260000Y-120440000D02*
X139260000Y-121440000D01*
X139260000Y-122560000D02*
X139260000Y-123560000D01*
X139260000Y-123560000D02*
X137740000Y-123560000D01*
X137440000Y-121950000D02*
X136960000Y-121950000D01*
X137200000Y-121620000D01*
X137440000Y-121950000D01*
G36*
X137440000Y-121950000D02*
G01*
X136960000Y-121950000D01*
X137200000Y-121620000D01*
X137440000Y-121950000D01*
G37*
%TO.C,C4*%
X152900000Y-107455000D02*
X156995000Y-107455000D01*
X156995000Y-105545000D02*
X152900000Y-105545000D01*
X156995000Y-107455000D02*
X156995000Y-105545000D01*
%TO.C,R4*%
X129265000Y-141772936D02*
X129265000Y-142227064D01*
X130735000Y-141772936D02*
X130735000Y-142227064D01*
%TO.C,R11*%
X132265000Y-131272936D02*
X132265000Y-131727064D01*
X133735000Y-131272936D02*
X133735000Y-131727064D01*
%TO.C,J1*%
X155490000Y-141990000D02*
X155490000Y-155010000D01*
X155490000Y-155010000D02*
X160400000Y-155010000D01*
X156300000Y-141990000D02*
X155490000Y-141990000D01*
X158000000Y-138890000D02*
X158000000Y-137610000D01*
X158600000Y-138890000D02*
X158600000Y-137610000D01*
X160890000Y-142000000D02*
X159910000Y-142000000D01*
X162200000Y-138890000D02*
X162200000Y-137610000D01*
X162800000Y-138890000D02*
X162800000Y-137610000D01*
X164500000Y-141000000D02*
X165100000Y-140700000D01*
X164500000Y-141990000D02*
X165310000Y-141990000D01*
X165100000Y-140700000D02*
X165100000Y-141300000D01*
X165100000Y-141300000D02*
X164500000Y-141000000D01*
X165310000Y-141990000D02*
X165310000Y-155010000D01*
X165310000Y-155010000D02*
X160400000Y-155010000D01*
%TO.C,C5*%
X126765000Y-141761252D02*
X126765000Y-141238748D01*
X128235000Y-141761252D02*
X128235000Y-141238748D01*
%TO.C,D5*%
X131040000Y-109640000D02*
X131040000Y-112500000D01*
X132960000Y-109640000D02*
X131040000Y-109640000D01*
X132960000Y-112500000D02*
X132960000Y-109640000D01*
%TO.C,K1*%
X145400000Y-129750000D02*
X145400000Y-131250000D01*
X145400000Y-131250000D02*
X146900000Y-131250000D01*
X145600000Y-117950000D02*
X145600000Y-131050000D01*
X145600000Y-131050000D02*
X175000000Y-131050000D01*
X150690000Y-121900000D02*
X150690000Y-126980000D01*
D10*
X150690000Y-125710000D02*
X153230000Y-124440000D01*
D20*
X150690000Y-126980000D02*
X151960000Y-126980000D01*
X150690000Y-128250000D02*
X151960000Y-128250000D01*
X151960000Y-120630000D02*
X150690000Y-120630000D01*
X151960000Y-121900000D02*
X151960000Y-120630000D01*
X151960000Y-126980000D02*
X153230000Y-126980000D01*
X151960000Y-128250000D02*
X151960000Y-126980000D01*
X153230000Y-121900000D02*
X150690000Y-121900000D01*
X153230000Y-126980000D02*
X153230000Y-121900000D01*
X175000000Y-117950000D02*
X145600000Y-117950000D01*
X175000000Y-131050000D02*
X175000000Y-117950000D01*
%TO.C,D4*%
X140850000Y-129010000D02*
X140850000Y-122000000D01*
X140850000Y-129010000D02*
X144150000Y-129010000D01*
X144150000Y-129010000D02*
X144150000Y-122000000D01*
%TO.C,R8*%
X136272936Y-137765000D02*
X136727064Y-137765000D01*
X136272936Y-139235000D02*
X136727064Y-139235000D01*
%TO.C,R10*%
X126265000Y-131272936D02*
X126265000Y-131727064D01*
X127735000Y-131272936D02*
X127735000Y-131727064D01*
%TO.C,J2*%
X123690000Y-94765000D02*
X126500000Y-94765000D01*
X123690000Y-107785000D02*
X123690000Y-94765000D01*
X123900000Y-108475000D02*
X124500000Y-108775000D01*
X123900000Y-109075000D02*
X123900000Y-108475000D01*
X124500000Y-107785000D02*
X123690000Y-107785000D01*
X124500000Y-108775000D02*
X123900000Y-109075000D01*
X126200000Y-110885000D02*
X126200000Y-112165000D01*
X126800000Y-110885000D02*
X126800000Y-112165000D01*
X128500000Y-107785000D02*
X129310000Y-107785000D01*
X129310000Y-94765000D02*
X126500000Y-94765000D01*
X129310000Y-107785000D02*
X129310000Y-94765000D01*
%TO.C,R7*%
X123272936Y-135265000D02*
X123727064Y-135265000D01*
X123272936Y-136735000D02*
X123727064Y-136735000D01*
%TO.C,J3*%
X165690000Y-94765000D02*
X168500000Y-94765000D01*
X165690000Y-107785000D02*
X165690000Y-94765000D01*
X165900000Y-108475000D02*
X166500000Y-108775000D01*
X165900000Y-109075000D02*
X165900000Y-108475000D01*
X166500000Y-107785000D02*
X165690000Y-107785000D01*
X166500000Y-108775000D02*
X165900000Y-109075000D01*
X168200000Y-110885000D02*
X168200000Y-112165000D01*
X168800000Y-110885000D02*
X168800000Y-112165000D01*
X170500000Y-107785000D02*
X171310000Y-107785000D01*
X171310000Y-94765000D02*
X168500000Y-94765000D01*
X171310000Y-107785000D02*
X171310000Y-94765000D01*
%TO.C,J4*%
X170690000Y-141990000D02*
X170690000Y-155010000D01*
X170690000Y-155010000D02*
X173500000Y-155010000D01*
X171500000Y-141990000D02*
X170690000Y-141990000D01*
X173200000Y-138890000D02*
X173200000Y-137610000D01*
X173800000Y-138890000D02*
X173800000Y-137610000D01*
X175500000Y-141000000D02*
X176100000Y-140700000D01*
X175500000Y-141990000D02*
X176310000Y-141990000D01*
X176100000Y-140700000D02*
X176100000Y-141300000D01*
X176100000Y-141300000D02*
X175500000Y-141000000D01*
X176310000Y-141990000D02*
X176310000Y-155010000D01*
X176310000Y-155010000D02*
X173500000Y-155010000D01*
%TO.C,R13*%
X136272936Y-132765000D02*
X136727064Y-132765000D01*
X136272936Y-134235000D02*
X136727064Y-134235000D01*
%TO.C,R9*%
X136727064Y-135265000D02*
X136272936Y-135265000D01*
X136727064Y-136735000D02*
X136272936Y-136735000D01*
%TD*%
D22*
X111500002Y-99000002D02*
X111500002Y-151000000D01*
X111500002Y-99000002D02*
G75*
G02*
X116000002Y-94500002I4499998J2D01*
G01*
X116000000Y-155500000D02*
G75*
G02*
X111500000Y-151000000I0J4500000D01*
G01*
X116000000Y-155500000D02*
X181000000Y-155500000D01*
X180999998Y-94500000D02*
X116000002Y-94500000D01*
X180999998Y-94500000D02*
G75*
G02*
X185500000Y-99000000I2J-4500000D01*
G01*
X185500000Y-151000000D02*
G75*
G02*
X181000000Y-155500000I-4500000J0D01*
G01*
X185500000Y-151000000D02*
X185500000Y-99000000D01*
M02*
